<?xml version='1.0' encoding='utf-8'?>
<svg xmlns="http://www.w3.org/2000/svg" width="710.58" height="811.24" viewBox="0 0 612 792"> <defs> <radialGradient id="a" cx="301.96" cy="278.24" r="242.61" gradientTransform="matrix(-1.2433 .029818 -.034973 -1.4582 675.11 822.09)" gradientUnits="userSpaceOnUse"> <stop stop-color="#d6e7a4" offset="0"/> <stop stop-color="#d6e7a4" offset=".5"/> <stop stop-color="#d6e7a4" offset=".75"/> <stop stop-color="#d6e7a4" stop-opacity="0" offset="1"/> </radialGradient> </defs> <path d="m-11.658 368.1h603.25v404.89h-603.25z" fill="url(#a)"/> <path d="m196.58 627.9c0 27.233 14.826 48.546 33.733 48.546 18.92 0 33.733-21.313 33.733-48.546 0-27.22-14.813-48.546-33.733-48.546-18.907 0-33.733 21.325-33.733 48.546zm8.8677 0c0-21.502 11.387-39.678 24.865-39.678s24.865 18.176 24.865 39.678c0 21.514-11.387 39.678-24.865 39.678s-24.865-18.164-24.865-39.678" fill="#434c9e"/> <path d="m232.48 629.29c0 3.6655-2.7712 6.6382-6.1973 6.6382s-6.1973-2.9727-6.1973-6.6382 2.7712-6.6382 6.1973-6.6382 6.1973 2.9727 6.1973 6.6382" fill="#434c9e"/> <path d="m207.12 611.02s22.434 34.665 58.446 28.543l22.434 14.952 5.4416-3.3884 5.429 14.272s44.188-14.952 13.591-19.713c0 0 7.4822-44.855-14.272-41.467l1.4864-2.2799s13.352 0.40308 7.3562-7.2302c0 0 4.2197-12.307-9.5228-10.19l-1.3478-2.0406-19.713 4.0812s2.7208-24.474-12.244-33.317l5.4416-7.4696s21.754 1.3604 17.672-15.632v-2.0406s5.4416-0.6802 4.0812-6.802c0 0 19.675-12.143 5.1896-17.685 0 0-5.5423-1.8768-14.36-1.3478l-5.4416-11.551s-22.094-6.1218-35.005 6.802c0 0-2.7208 3.401-0.6802 15.632 0 0-24.474 14.272-3.401 17.672 0 0-2.0406 4.7614-1.3604 13.591 0 0-14.788 2.3555-20.23 10.505 0 0-22.585 15.997-11.034 56.104" fill="#434c9e"/> <path d="m246.66 636.76 3.2372-13.365 0.40308-43.709s-10.53-19.02-39.262-18.214c0 0-7.2806 0-6.0714 18.214 0 0-8.5024 41.693 41.693 57.073" fill="#858a9c"/> <path d="m492.15 240.14c-0.74318-0.21413-1.4738-0.44087-2.2043-0.68019-3.7915-1.1966-7.3436-2.7208-10.656-4.4717-2.3303-1.2218-4.5598-2.557-6.6508-3.9678-0.64241-0.42827-1.2722-0.85654-1.8894-1.2974-2.9349-2.1036-5.6305-4.3583-8.0868-6.6508-0.23933-0.21413-0.46606-0.42827-0.6928-0.655-2.4689-2.3429-4.6858-4.711-6.6508-7.0287-0.85654-1.0077-1.6879-2.0028-2.4563-2.9727-1.8894-2.4059-3.4892-4.6606-4.8118-6.6508l-3.401-5.5172c-0.84395-1.499-1.2848-2.4185-1.3478-2.5318-1.7761-4.3583-3.5395-8.5402-5.303-12.596-1.0707-2.5066-2.154-4.9503-3.2246-7.3436-1.0077-2.2547-2.0154-4.4843-3.0231-6.6508-1.4738-3.1994-2.9475-6.2981-4.4087-9.3086-2.2547-4.6228-4.4716-8.9937-6.6508-13.15-0.9951-1.8768-1.9776-3.7285-2.9475-5.5171-1.2596-2.2925-2.494-4.4968-3.7285-6.6508-1.3478-2.3429-2.6704-4.5976-3.993-6.7768-2.2673-3.7537-4.4968-7.2554-6.6886-10.53-2.5696-3.867-5.0889-7.4192-7.5451-10.669-1.7761-2.3681-3.5269-4.585-5.24-6.6508-0.0252-0.0252-0.03779-0.03779-0.05039-0.06299-2.2925-2.7586-4.5094-5.2526-6.6508-7.5073-0.93212-0.9825-1.8516-1.9146-2.7586-2.7964-2.5822-2.557-5.0511-4.7614-7.394-6.6508l-0.22673-0.18894c-2.3429-1.8768-4.5598-3.464-6.6508-4.7866-4.0812-2.5948-7.6585-4.2071-10.656-5.2022-2.6956-0.89433-4.9251-1.2848-6.6508-1.436-1.7887-0.15116-3.0483-0.03779-3.6907 0.06298-2.3429-0.11337-4.6732 0.05038-6.9783 0.45346-2.2295 0.37789-4.4591 0.98251-6.6508 1.7887-3.6151 1.3352-7.1798 3.1994-10.669 5.5046-4.3457 2.8845-8.578 6.4367-12.659 10.455-1.5745 1.5493-3.1239 3.1742-4.648 4.8495-3.4766 3.8167-6.8146 7.923-10.001 12.168-2.5444 3.4136-4.9881 6.9027-7.3184 10.417-2.3429 3.5395-4.5598 7.0917-6.6508 10.568-1.4108 2.3681-2.7712 4.711-4.056 6.9909s-2.5066 4.5094-3.6529 6.6508c-1.0455 1.9524-2.028 3.8418-2.9475 5.6431-2.8468 5.5549-5.1015 10.304-6.6508 13.705-1.3856 3.0231-2.2169 4.9755-2.4311 5.4794-0.42827 1.0707-0.86914 2.1162-1.31 3.149-0.9825 2.3051-1.9902 4.522-3.0105 6.6508-1.2722 2.6452-2.5822 5.1518-3.9174 7.5199-2.1288 3.7663-4.3457 7.1924-6.6508 10.279-2.9601 3.9678-6.0588 7.3688-9.2834 10.19-3.1994 2.7838-6.5122 4.9881-9.9636 6.6508-2.8216 1.3478-5.7439 2.3177-8.7292 2.9097-0.42827 0.08817-0.85654 0.16375-1.2974 0.23933-1.7887 0.27711-3.5773 0.41567-5.3534 0.42827-3.6151 0.03779-7.1798-0.44087-10.669-1.2974-2.2547-0.56683-4.4842-1.2974-6.6508-2.1414l-0.36529-0.13856c-6.1973-2.4689-11.954-5.9076-16.942-9.5101-3.6781-2.6452-6.9153-5.3534-9.6235-7.8097-3.6907-3.338-6.3737-6.1847-7.6963-7.6459-0.59202-0.655-0.91953-1.0455-0.95731-1.0707l-0.08818-0.11337-0.10077-0.10077c-2.9853-3.0105-5.9454-5.7943-8.8929-8.3891-2.7208-2.3933-5.4164-4.6102-8.112-6.6508-3.3002-2.5066-6.5752-4.7488-9.8251-6.7138-2.3303-1.4108-4.648-2.683-6.9405-3.8167-0.08818-0.03779-0.17635-0.08817-0.26452-0.12596-7.7845-3.8166-15.405-6.0336-22.824-6.6508-1.5493-0.12597-3.0735-0.18895-4.5976-0.17635-5.3282 0.02519-10.568 0.90693-15.682 2.6326-3.2246 1.0833-6.3611 2.494-9.3968 4.1945-3.3002 1.839-6.487 4.0434-9.5605 6.5248-3.8796 3.1491-7.5829 6.7642-11.11 10.782-2.1288 2.4311-4.1945 4.9881-6.1973 7.6837-2.2925 3.0861-4.5094 6.3485-6.6508 9.7369s-4.1971 6.9153-6.1784 10.568c-1.1866 2.1791-2.3492 4.3835-3.4816 6.6508-0.3401 0.6676-0.67138 1.3604-1.0064 2.0406-2.4286 4.9503-4.7324 10.064-6.9141 15.267-1.4712 3.5143-2.8883 7.0791-4.25 10.669-0.83765 2.2043-1.6564 4.4213-2.4537 6.6508-1.271 3.5395-2.4915 7.1043-3.6617 10.656-2.6515 8.0742-5.0473 16.123-7.1987 23.971-0.9888 3.6025-1.926 7.1672-2.814 10.669-0.57061 2.2421-1.1185 4.4591-1.6488 6.6508-0.88299 3.6403-1.7131 7.205-2.484 10.656-0.50763 2.2673-0.99258 4.4843-1.4536 6.6508-0.62729 2.9475-1.208 5.7691-1.7509 8.4898-3.7184 18.63-5.5008 31.654-5.7527 33.544l-0.02897 0.22674v3.5269l1.7156 6.6004h506.1v-127.88l-2.4311-0.6676zm-4.2197 17.559h-8.641v-10.656h8.641v10.656zm0 17.32h-8.641v-10.669h8.641v10.669zm0 17.32h-8.641v-10.669h8.641v10.669zm0 17.307h-8.641v-10.656h8.641v10.656zm0 17.32h-8.641v-10.669h8.641v10.669zm0 17.307h-8.641v-10.656h8.641v10.656zm-15.292-105.42v1.5367h-10.669v-9.0567c3.2246 2.6704 6.7768 5.2148 10.669 7.52zm-105.82 70.791h-10.656v-10.656h10.656v10.656zm-10.656 6.6508h10.656v10.669h-10.656v-10.669zm10.656-23.958h-10.656v-10.669h10.656v10.669zm0-17.32h-10.656v-10.669h10.656v10.669zm0-17.32h-10.656v-10.656h10.656v10.656zm0-17.307h-10.656v-10.669h10.656v10.669zm0-17.32h-10.656v-10.656h10.656v10.656zm0-17.307h-10.656v-10.669h10.656v10.669zm0-17.32h-10.656v-10.669h10.656v10.669zm0-17.32h-10.656v-10.656h10.656v10.656zm0-17.307h-10.656v-10.669h10.656v10.669zm0-17.32h-10.656v-10.656h10.656v10.656zm0-17.307h-10.656v-10.669h10.656v10.669zm-10.656 214.43h10.656v10.669h-10.656v-10.669zm10.656-231.75h-10.656v-10.367h10.656v10.367zm17.03 207.77h-10.379v-10.656h10.379v10.656zm-10.379 6.6508h10.379v10.669h-10.379v-10.669zm0-23.958v-10.669h10.379v10.669h-10.379zm10.379-17.32h-10.379v-10.669h10.379v10.669zm0-17.32h-10.379v-10.656h10.379v10.656zm0-17.307h-10.379v-10.669h10.379v10.669zm0-17.32h-10.379v-10.656h10.379v10.656zm0-17.307h-10.379v-10.669h10.379v10.669zm0-17.32h-10.379v-10.669h10.379v10.669zm0-17.32h-10.379v-10.656h10.379v10.656zm0-17.307h-10.379v-10.669h10.379v10.669zm0-17.32h-10.379v-10.656h10.379v10.656zm-10.379 197.12h10.379v10.669h-10.379v-10.669zm10.379-214.43h-10.379v-10.669h10.379v10.669zm19.524 190.45h-12.873v-10.656h12.873v10.656zm-12.873 6.6508h12.873v10.669h-12.873v-10.669zm12.873-23.958h-12.873v-10.669h12.873v10.669zm0-17.32h-12.873v-10.669h12.873v10.669zm0-17.32h-12.873v-10.656h12.873v10.656zm0-17.307h-12.873v-10.669h12.873v10.669zm0-17.32h-12.873v-10.656h12.873v10.656zm0-17.307h-12.873v-10.669h12.873v10.669zm0-17.32h-12.873v-10.669h12.873v10.669zm0-17.32h-12.873v-10.656h12.873v10.656zm0-17.307h-12.873v-10.669h12.873v10.669zm-12.873 179.8h12.873v10.669h-12.873v-10.669zm12.873-197.12h-12.873v-10.656h9.2834c1.184 1.8264 2.3807 3.7159 3.5899 5.6935v4.9629zm17.32 173.15h-10.669v-10.656h10.669v10.656zm-10.669 6.6508h10.669v10.669h-10.669v-10.669zm10.669-23.958h-10.669v-10.669h10.669v10.669zm0-17.32h-10.669v-10.669h10.669v10.669zm0-17.32h-10.669v-10.656h10.669v10.656zm0-17.307h-10.669v-10.669h10.669v10.669zm0-17.32h-10.669v-10.656h10.669v10.656zm0-17.307h-10.669v-10.669h10.669v10.669zm0-17.32h-10.669v-10.669h10.669v10.669zm-10.669 145.17h10.669v10.669h-10.669v-10.669zm10.669-162.49h-10.669v-10.656h9.2456c0.47865 0.94472 0.94471 1.8894 1.4234 2.8593v7.7971zm17.307 138.52h-10.656v-10.656h10.656v10.656zm-10.656 6.6508h10.656v10.669h-10.656v-10.669zm10.656-23.958h-10.656v-10.669h10.656v10.669zm0-17.32h-10.656v-10.669h10.656v10.669zm0-17.32h-10.656v-10.656h10.656v10.656zm0-17.307h-10.656v-10.669h10.656v10.669zm0-17.32h-10.656v-10.656h10.656v10.656zm-10.656 110.54h10.656v10.669h-10.656v-10.669zm10.656-127.85h-10.656v-10.669h7.6837c0.71798 1.7257 1.436 3.4766 2.1666 5.2526l0.03779 0.07558 0.03779 0.08817c0.06298 0.15116 0.3149 0.6676 0.73058 1.4486v3.8041zm17.32 103.88h-10.669v-10.656h10.669v10.656zm-10.669 6.6508h10.669v10.669h-10.669v-10.669zm10.669-23.958h-10.669v-10.669h10.669v10.669zm0-17.32h-10.669v-10.669h10.669v10.669zm-10.669-17.32v-10.656h10.669v10.656h-10.669zm0 75.917h10.669v10.669h-10.669v-10.669zm10.669-93.225h-10.669v-10.669h10.669v10.669zm17.32 69.254h-10.669v-10.656h10.669v10.656zm-10.669 6.6508h10.669v10.669h-10.669v-10.669zm10.669-23.958h-10.669v-10.669h10.669v10.669zm0-17.32h-10.669v-10.669h10.669v10.669zm0-17.32h-10.669v-10.656h10.669v10.656zm-10.669 75.917h10.669v10.669h-10.669v-10.669zm-8.767-110.54h-8.5528v-10.442c2.3051 3.212 5.1518 6.802 8.5528 10.442zm-20.998-34.627h-4.8622v-10.669h0.15116c1.5493 3.4388 3.1239 6.9909 4.711 10.669zm-16.312-34.627h-5.8698v-10.669h0.13856c1.8768 3.3758 3.7915 6.9279 5.7313 10.669zm-20.557-34.627h-4.837v-6.7012c1.5745 2.1036 3.1868 4.3205 4.837 6.7012zm-13.528-17.32h-8.3387v-8.4395c2.62 2.3681 5.4038 5.1644 8.3387 8.4395zm-19.663-17.018h-5.9832v-3.0357c1.7635 0.71798 3.7663 1.7005 5.9832 3.0357zm-16.35-4.8999 0.41567 0.02519 0.47866-0.08817c0.06298-0.0126 1.0329-0.16375 2.8216 0.06298v4.8999h-10.669v-4.3709c2.3177-0.47866 4.6354-0.6802 6.9531-0.52904zm3.7159 229.69h-10.669v-10.656h10.669v10.656zm-10.669 6.6508h10.669v10.669h-10.669v-10.669zm10.669-23.958h-10.669v-10.669h10.669v10.669zm0-17.32h-10.669v-10.669h10.669v10.669zm0-17.32h-10.669v-10.656h10.669v10.656zm0-17.307h-10.669v-10.669h10.669v10.669zm0-17.32h-10.669v-10.656h10.669v10.656zm0-17.307h-10.669v-10.669h10.669v10.669zm0-17.32h-10.669v-10.669h10.669v10.669zm0-17.32h-10.669v-10.656h10.669v10.656zm0-17.307h-10.669v-10.669h10.669v10.669zm0-17.32h-10.669v-10.656h10.669v10.656zm0-17.307h-10.669v-10.669h10.669v10.669zm0-17.32h-10.669v-10.367h10.669v10.367zm-10.669 231.75h10.669v10.669h-10.669v-10.669zm-6.6508-250.99v2.2295h-4.4087c1.4612-0.84395 2.9349-1.5871 4.4087-2.2295zm0 227.02h-10.669v-10.656h10.669v10.656zm-10.669 6.6508h10.669v10.669h-10.669v-10.669zm10.669-23.958h-10.669v-10.669h10.669v10.669zm0-17.32h-10.669v-10.669h10.669v10.669zm0-17.32h-10.669v-10.656h10.669v10.656zm0-17.307h-10.669v-10.669h10.669v10.669zm0-17.32h-10.669v-10.656h10.669v10.656zm0-17.307h-10.669v-10.669h10.669v10.669zm0-17.32h-10.669v-10.669h10.669v10.669zm0-17.32h-10.669v-10.656h10.669v10.656zm0-17.307h-10.669v-10.669h10.669v10.669zm0-17.32h-10.669v-10.656h10.669v10.656zm0-17.307h-10.669v-10.669h10.669v10.669zm0-17.32h-10.669v-10.367h10.669v10.367zm-10.669 231.75h10.669v10.669h-10.669v-10.669zm-6.6508-238.85v7.1043h-6.802c2.2169-2.5192 4.4968-4.8999 6.802-7.1043zm-17.307 214.88h-10.669v-10.656h10.669v10.656zm-10.669 6.6508h10.669v10.669h-10.669v-10.669zm0-23.958v-10.669h10.669v10.669h-10.669zm10.669-17.32h-10.669v-10.669h10.669v10.669zm0-17.32h-10.669v-10.656h10.669v10.656zm0-17.307h-10.669v-10.669h10.669v10.669zm0-17.32h-10.669v-10.656h10.669v10.656zm0-17.307h-10.669v-10.669h10.669v10.669zm0-17.32h-10.669v-10.669h10.669v10.669zm0-17.32h-10.669v-10.656h10.669v10.656zm0-17.307h-10.669v-10.669h10.669v10.669zm-10.669 179.8h10.669v10.669h-10.669v-10.669zm10.669-214.43h-2.809c0.91953-1.3478 1.8516-2.6956 2.809-4.0182v4.0182zm17.307 190.45h-10.656v-10.656h10.656v10.656zm-10.656 6.6508h10.656v10.669h-10.656v-10.669zm10.656-23.958h-10.656v-10.669h10.656v10.669zm0-17.32h-10.656v-10.669h10.656v10.669zm0-17.32h-10.656v-10.656h10.656v10.656zm0-17.307h-10.656v-10.669h10.656v10.669zm0-17.32h-10.656v-10.656h10.656v10.656zm0-17.307h-10.656v-10.669h10.656v10.669zm0-17.32h-10.656v-10.669h10.656v10.669zm0-17.32h-10.656v-10.656h10.656v10.656zm0-17.307h-10.656v-10.669h10.656v10.669zm0-17.32h-10.656v-10.656h10.656v10.656zm0-17.307h-10.656v-10.669h10.656v10.669zm-10.656 214.43h10.656v10.669h-10.656v-10.669zm-13.843-207.77h7.1924v10.656h-10.669v-5.0511c1.1211-1.8642 2.2799-3.7285 3.4766-5.6053zm-10.127 17.307v10.669h-5.6935c1.6501-3.2624 3.5269-6.8649 5.6179-10.669h0.07558zm0 166.5h-10.656v-10.656h10.656v10.656zm-10.656 6.6508h10.656v10.669h-10.656v-10.669zm10.656-23.958h-10.656v-10.669h10.656v10.669zm0-17.32h-10.656v-10.669h10.656v10.669zm0-17.32h-10.656v-10.656h10.656v10.656zm0-17.307h-10.656v-10.669h10.656v10.669zm0-17.32h-10.656v-10.656h10.656v10.656zm0-17.307h-10.656v-10.669h10.656v10.669zm0-17.32h-10.656v-10.669h10.656v10.669zm-10.656 145.17h10.656v10.669h-10.656v-10.669zm1.6753-173.15h8.9811v10.656h-10.656v-7.1043c0.49125-1.0707 1.0581-2.2673 1.6753-3.5521zm-8.3261 149.18h-10.669v-10.656h10.669v10.656zm-10.669 6.6508h10.669v10.669h-10.669v-10.669zm10.669-23.958h-10.669v-10.669h10.669v10.669zm0-17.32h-10.669v-10.669h10.669v10.669zm0-17.32h-10.669v-10.656h10.669v10.656zm0-17.307h-10.669v-10.669h10.669v10.669zm0-17.32h-10.669v-10.656h10.669v10.656zm-10.669 110.54h10.669v10.669h-10.669v-10.669zm10.669-145.17h-4.8244c1.6627-2.9349 3.2624-6.0588 4.8244-9.3716v9.3716zm-8.8803 6.6508h8.8803v10.669h-10.669v-8.0364c0.60462-0.85654 1.1966-1.7383 1.7887-2.6326zm-15.317 17.32h6.8775v10.656h-10.669v-7.8978c1.2848-0.85654 2.5444-1.7761 3.7915-2.7586zm6.8775 97.23h-10.669v-10.656h10.669v10.656zm0 6.6508v10.669h-10.669v-10.669h10.669zm0-23.958h-10.669v-10.669h10.669v10.669zm0-17.32h-10.669v-10.669h10.669v10.669zm0-17.32h-10.669v-10.656h10.669v10.656zm0-17.307h-10.669v-10.669h10.669v10.669zm-10.669 93.225h10.669v10.669h-10.669v-10.669zm-6.6508-114.75v4.2071h-10.656v-0.9951c3.6781-0.59202 7.2302-1.6753 10.656-3.212zm0 90.781h-10.656v-10.656h10.656v10.656zm-10.656 6.6508h10.656v10.669h-10.656v-10.669zm10.656-23.958h-10.656v-10.669h10.656v10.669zm0-17.32h-10.656v-10.669h10.656v10.669zm0-17.32h-10.656v-10.656h10.656v10.656zm0-17.307h-10.656v-10.669h10.656v10.669zm-10.656 93.225h10.656v10.669h-10.656v-10.669zm-6.6508-23.971h-10.669v-10.656h10.669v10.656zm-10.669 6.6508h10.669v10.669h-10.669v-10.669zm10.669-23.958h-10.669v-10.669h10.669v10.669zm0-17.32h-10.669v-10.669h10.669v10.669zm0-17.32h-10.669v-10.656h10.669v10.656zm0-17.307h-10.669v-10.669h10.669v10.669zm-10.669 93.225h10.669v10.669h-10.669v-10.669zm10.669-110.96v0.41567h-10.669v-1.5367c3.4766 0.74317 7.0413 1.1588 10.669 1.1211zm-17.32-2.9475v3.3632h-10.656v-8.049c3.3632 1.8013 6.9405 3.4136 10.656 4.6858zm-51.947 89.937h-10.656v-10.656h10.656v10.656zm-10.656 6.6508h10.656v10.669h-10.656v-10.669zm10.656-23.958h-10.656v-10.669h10.656v10.669zm0-17.32h-10.656v-10.669h10.656v10.669zm0-17.32h-10.656v-10.656h10.656v10.656zm0-17.307h-10.656v-10.669h10.656v10.669zm0-17.32h-10.656v-10.656h10.656v10.656zm0-17.307h-10.656v-10.669h10.656v10.669zm-10.656 127.85h10.656v10.669h-10.656v-10.669zm10.656-145.17h-10.656v-10.669h7.5703c1.0203 0.81875 2.0532 1.6501 3.0861 2.5192v8.1498zm17.32 121.2h-10.669v-10.656h10.669v10.656zm-10.669 6.6508h10.669v10.669h-10.669v-10.669zm10.669-23.958h-10.669v-10.669h10.669v10.669zm0-17.32h-10.669v-10.669h10.669v10.669zm0-17.32h-10.669v-10.656h10.669v10.656zm0-17.307h-10.669v-10.669h10.669v10.669zm0-17.32h-10.669v-10.656h10.669v10.656zm-10.669 110.54h10.669v10.669h-10.669v-10.669zm10.669-127.85h-10.669v-10.669h8.704c0.59202 0.60462 1.2596 1.2722 1.965 1.965v8.704zm17.32 103.88h-10.669v-10.656h10.669v10.656zm-10.669 6.6508h10.669v10.669h-10.669v-10.669zm10.669-23.958h-10.669v-10.669h10.669v10.669zm0-17.32h-10.669v-10.669h10.669v10.669zm0-17.32h-10.669v-10.656h10.669v10.656zm0-17.307h-10.669v-10.669h10.669v10.669zm-10.669 93.225h10.669v10.669h-10.669v-10.669zm10.669-110.54h-10.669v-10.656h10.669v10.656zm17.307 86.574h-10.656v-10.656h10.656v10.656zm-10.656 6.6508h10.656v10.669h-10.656v-10.669zm10.656-23.958h-10.656v-10.669h10.656v10.669zm0-17.32h-10.656v-10.669h10.656v10.669zm0-17.32h-10.656v-10.656h10.656v10.656zm0-17.307h-10.656v-10.669h10.656v10.669zm-10.656 93.225h10.656v10.669h-10.656v-10.669zm-14.057-127.85h-3.2624v-2.6578c1.0329 0.88173 2.1288 1.7635 3.2624 2.6578zm-18.202-17.32h-2.3807v-2.2547c0.79356 0.73058 1.5871 1.4864 2.3807 2.2547zm-26.628-20.356v3.0357h-10.379v-7.7089c3.4136 1.2092 6.8649 2.7712 10.379 4.6732zm-17.03 141.56h-10.656v-10.656h10.656v10.656zm-10.656 6.6508h10.656v10.669h-10.656v-10.669zm10.656-23.958h-10.656v-10.669h10.656v10.669zm0-17.32h-10.656v-10.669h10.656v10.669zm0-17.32h-10.656v-10.656h10.656v10.656zm0-17.307h-10.656v-10.669h10.656v10.669zm0-17.32h-10.656v-10.656h10.656v10.656zm0-17.307h-10.656v-10.669h10.656v10.669zm0-17.32h-10.656v-10.669h10.656v10.669zm-10.656 145.17h10.656v10.669h-10.656v-10.669zm10.656-162.49h-10.656v-10.656h3.8922c2.2421 0.17635 4.4842 0.51645 6.7642 1.0203v9.6361zm17.03 138.52h-10.379v-10.656h10.379v10.656zm-10.379 6.6508h10.379v10.669h-10.379v-10.669zm10.379-23.958h-10.379v-10.669h10.379v10.669zm0-17.32h-10.379v-10.669h10.379v10.669zm0-17.32h-10.379v-10.656h10.379v10.656zm0-17.307h-10.379v-10.669h10.379v10.669zm0-17.32h-10.379v-10.656h10.379v10.656zm0-17.307h-10.379v-10.669h10.379v10.669zm0-17.32h-10.379v-10.669h10.379v10.669zm-10.379 145.17h10.379v10.669h-10.379v-10.669zm-30.861-171.04c2.2673-0.76837 4.5724-1.3226 6.9027-1.7005v10.253h-10.669v-7.0791c1.247-0.54164 2.494-1.0455 3.7663-1.4738zm6.9027 147.07h-10.669v-10.656h10.669v10.656zm-10.669 6.6508h10.669v10.669h-10.669v-10.669zm10.669-23.958h-10.669v-10.669h10.669v10.669zm0-17.32h-10.669v-10.669h10.669v10.669zm0-17.32h-10.669v-10.656h10.669v10.656zm0-17.307h-10.669v-10.669h10.669v10.669zm0-17.32h-10.669v-10.656h10.669v10.656zm0-17.307h-10.669v-10.669h10.669v10.669zm0-17.32h-10.669v-10.669h10.669v10.669zm-10.669 145.17h10.669v10.669h-10.669v-10.669zm-6.6508-166.08v3.5899h-5.2022c1.7005-1.2974 3.4388-2.494 5.2022-3.5899zm0 142.11h-10.669v-10.656h10.669v10.656zm-10.669 6.6508h10.669v10.669h-10.669v-10.669zm10.669-23.958h-10.669v-10.669h10.669v10.669zm0-17.32h-10.669v-10.669h10.669v10.669zm0-17.32h-10.669v-10.656h10.669v10.656zm0-17.307h-10.669v-10.669h10.669v10.669zm0-17.32h-10.669v-10.656h10.669v10.656zm-10.669-17.307v-10.669h10.669v10.669h-10.669zm10.669-17.32h-10.669v-10.669h10.669v10.669zm-10.669 145.17h10.669v10.669h-10.669v-10.669zm-6.6508-23.971h-10.656v-10.656h10.656v10.656zm-10.656 6.6508h10.656v10.669h-10.656v-10.669zm10.656-23.958h-10.656v-10.669h10.656v10.669zm0-17.32h-10.656v-10.669h10.656v10.669zm0-17.32h-10.656v-10.656h10.656v10.656zm0-17.307h-10.656v-10.669h10.656v10.669zm0-17.32h-10.656v-10.656h10.656v10.656zm-10.656 110.54h10.656v10.669h-10.656v-10.669zm10.656-150.9v5.7313h-4.6228c1.5116-1.9902 3.0483-3.9048 4.6228-5.7313zm-9.3338 12.382h9.3338v10.669h-10.656v-8.6284c0.44087-0.6802 0.88174-1.373 1.3226-2.0406zm-7.9734 17.32v10.656h-7.3046c1.6614-3.6403 3.3833-7.205 5.1758-10.656h2.1288zm0 97.23h-10.666v-10.656h10.666v10.656zm-10.666 6.6508h10.666v10.669h-10.666v-10.669zm10.666-23.958h-10.666v-10.669h10.666v10.669zm0-17.32h-10.666v-10.669h10.666v10.669zm0-17.32h-10.666v-10.656h10.666v10.656zm-10.666 75.917h10.666v10.669h-10.666v-10.669zm0.42197-103.89h10.245v10.669h-10.666v-9.6613l0.42197-1.0077zm-7.0728 18.038v9.9384h-3.4526c1.1072-3.3128 2.2598-6.6382 3.4526-9.9384zm-5.6091 16.589h5.6091v10.669h-8.8501c1.0316-3.5395 2.1136-7.0917 3.241-10.669zm5.6091 45.296h-10.664v-10.656h10.664v10.656zm-10.663 6.6508h10.664v10.669h-10.664v-10.669zm10.663-23.958h-10.664v-10.669h10.664v10.669zm-10.663 41.278h10.664v10.669h-10.664v-10.669zm-6.6508-26.087v2.1162h-0.48621c0.15997-0.70538 0.3212-1.3982 0.48621-2.1162zm-5.5033 26.087h5.5033v10.656h-7.4481c0.54668-3.149 1.1941-6.7264 1.9449-10.656zm5.5033-17.32v10.669h-4.1996c0.67768-3.3758 1.4196-6.9405 2.2308-10.669h1.9688zm-9.587 45.737c-0.09321-0.35269-0.16753-0.6424-0.2091-0.80616v-2.2295c0.08188-0.59202 0.48495-3.464 1.2294-8.0742h8.5667v11.11h-9.587zm16.238 0v-11.11h10.663v11.11h-10.663zm17.314 0v-11.11h10.666v11.11h-10.666zm17.317 0v-11.11h10.656v11.11h-10.656zm17.307 0v-11.11h10.669v11.11h-10.669zm17.32 0v-11.11h10.669v11.11h-10.669zm17.32 0v-11.11h10.656v11.11h-10.656zm17.307 0v-11.11h10.379v11.11h-10.379zm17.32 0v-11.11h10.656v11.11h-10.656zm17.307 0v-11.11h10.669v11.11h-10.669zm17.32 0v-11.11h10.669v11.11h-10.669zm17.32 0v-11.11h10.656v11.11h-10.656zm17.307 0v-11.11h10.669v11.11h-10.669zm17.32 0v-11.11h10.656v11.11h-10.656zm17.307 0v-11.11h10.669v11.11h-10.669zm17.32 0v-11.11h10.669v11.11h-10.669zm17.32 0v-11.11h10.656v11.11h-10.656zm17.307 0v-11.11h10.669v11.11h-10.669zm17.32 0v-11.11h10.656v11.11h-10.656zm17.307 0v-11.11h10.669v11.11h-10.669zm17.32 0v-11.11h10.669v11.11h-10.669zm17.32 0v-11.11h10.656v11.11h-10.656zm17.307 0v-11.11h10.379v11.11h-10.379zm17.03 0v-11.11h12.873v11.11h-12.873zm19.524 0v-11.11h10.669v11.11h-10.669zm17.32 0v-11.11h10.656v11.11h-10.656zm17.307 0v-11.11h10.669v11.11h-10.669zm17.32 0v-11.11h10.669v11.11h-10.669zm25.961 0h-8.641v-11.11h8.641v11.11z" fill="none" stroke="#b1d253" stroke-width="1.1085"/> <path d="m469.39 354.61h63.435v-89.849h-63.435v89.849z" fill="#b1d253"/> <path d="m472.64 354h56.771v-89.647h-56.771v89.647z" fill="#fff"/> <path d="m166.83 367.95v-80.389l83.4-115.56 94.862 110.53v84.407l-178.26 1.0077" fill="#b1d253"/> <path d="m248.23 127.79h3.0105v55.272h-3.0105v-55.272z" fill="#b1d253"/> <path d="m326.6 148.91c-9.0441-11.059-25.129-6.0336-25.129-6.0336-11.047 2.0028-19.083-7.0287-19.083-7.0287-7.0413-11.059-31.969-4.711-31.969-4.711l0.41567 14.876s17.345-11.979 28.077-2.4815c0 0 11.16 13.213 24.374 5.366 0 0 14.826-7.0035 23.316 0.0126" fill="#b1d253"/> <path d="m215.7 291.44-30.773-21.98 65.929-89.383 89.395 105.51v6.7516l-124.55-0.89433" fill="#d6e7a4"/> <path d="m251.24 132.82-0.06298 10.329s18-13.919 30.47 0.80616c0 0 10.845 9.2078 20.859 4.0938 0 0 10.644-5.1141 15.959-2.8593 0 0-5.9328-5.1141-19.436 1.0203 0 0-8.5906 1.6375-17.181-8.3891 0 0-3.7537-11.022-30.609-5.0007" fill="#d6e7a4"/> <path d="m209.96 364.28h130.28v-68.561h-130.28v68.561z" fill="#d6e7a4"/> <path d="m462.18 731.25s-16.123-0.25192-8.4521 8.2631c0 0 14.41 14.75 25.495 6.2225 0 0 16.199 9.3842 19.612-4.2575l6.8146-1.7005 5.1141-66.495 3.4136-4.2701v-12.785s27.283-60.525-17.899-70.753c0 0 1.7005 2.557 16.199 0.84395 0 0 15.342-1.7005 4.2575-23.87l7.6711-14.486s-1.7005-27.283-28.984-29.84l-9.3716 8.5276s-33.254-19.612-23.87 17.899c0 0-5.9706 7.6711 2.557 11.941 0 0-10.493 10.228 4.8496 18.756l5.2904 5.5171v6.3611s-24.638 6.8775-24.638 24.777l-6.8146 50.297 2.557 4.2575s-5.8194 15.015 2.557 10.228c0 0-1.4738 9.6613 3.4136 5.9706 0 0 2.2547 6.021 5.5297 0.17634 0 0 1.2848 27.107 4.6984 48.42" fill="#434c9e"/> <path d="m203.55 640.18c-1.7761 10.845-0.40308 14.838-1.5619 25.986 0 0 40.459 12.218 5.7943 16.627 0 0-19.423 2.62-17.71-6.7516l0.21413 1.7509-13.327 0.41567-1.0455-36.642-9.422-2.0028s-6.9405-15.733-2.683-50.675l-5.1141-1.7131 0.85655-17.043s-24.248-37.31 10.228-58.824l1.7005-24.726s-4.0182-20.633 16.312-27.006c0 0 18.844-8.3135 25.457 9.0567l8.3261-1.7131s8.5654 0 11.74 7.3436c0 0 0.25193 1.4738-2.4437 2.4563l-12.495 5.6053s8.515 3.401 0 10.228c0 0 3.1994 7.5325-3.9174 12.974 0 0-2.5066 3.1491-2.7208 3.9804 0 0-1.0455 1.0455-6.2729-0.62981 0 0-3.1491 0.21413-3.5647 2.091l-2.3429 2.9853s16.022 8.7796 16.577 44.339l18.63 11.085 0.21413 1.6879s10.682-2.3051 14.234 12.558c0 0 0.84395 2.5066-2.5066 2.5066 0 0-0.21413 3.9804-3.9804 3.1365 0 0 0.21413 2.3051-3.3506 1.6753l-2.9349-1.247 2.5192-2.5192s-5.2652-6.0462-6.5248-8.767l-2.0154 2.0154-22.195-7.268s1.4234 8.3639 3.3128 15.279l-5.24 2.3051s4.6228 13.062 5.4416 46.694l-8.1876 2.746" fill="#434c9e"/> <path d="m151.76 416.47s4.6354 0 4.2701-4.9881c0 0 38.305-14.435-2.1414-17.395l-5.9454-11.047c-6.0966-9.3464-20.733-4.8747-20.733-4.8747-15.443 1.2218-16.438 12.193-16.438 12.193l-0.40308 10.568s-28.795 9.8376-3.3758 16.186v3.3632s-31.188 4.6228-32.108 12.911l-0.91952 52.526s-2.3051 10.593 10.14 11.513l-1.3856 14.284 5.5297 4.6102s-1.3856 39.628 6.4493 83.866l2.3051 1.8516s0.07558 0.41567 0.21414 1.1462c0.88173 4.4339 1.2596 24.034 15.783 22.824 0 0 7.5074-6.4619 0.13856-23.051 0 0 6.9027-40.094 5.0637-62.213 0 0 6.4493 32.259 4.6102 55.297l3.2246 2.3051s-4.3331 6.4493 0.73058 9.2204c0 0 16.488 14.813 24.966 7.5451 0 0 0.56683-8.9307-10.946-16.766 0 0 12.899-41.933-1.8516-84.332l3.2246-1.373s-7.6963-16.249-6.613-32.272c0.05038-0.60462 0.10077-1.2218 0.16375-1.839l9.2204 20.746s0.93212 22.862 5.5297 4.5976c0 0-0.11336 11.009-0.11336 13.78 0 0 2.4185 0.05039 5.177-3.6403 0 0 7.3814 3.2372-1.373-23.038 0 0-5.7565-38.355-23.731-57.716 0 0 2.0658-0.79356 5.2904-0.79356 0 0 9.9258 1.8516 10.53-3.5899l4.2701-6.5248s1.7887-4.0686 0.89433-5.1644" fill="#434c9e"/> <path d="m335.89 288.5c2.8845-4.2323 4.7614-9.0819 4.7614-9.0819 9.233-1.5745 3.4388-10.719 3.4388-10.719 6.2099-2.8216 5.6431-7.8978 5.6431-7.8978l-12.407-4.5094-5.0763-15.216c-25.369-8.4647-37.763 9.5857-37.763 9.5857l4.5094 12.962-9.0315 12.974c-6.1973 4.5094 12.974 6.1973 12.974 6.1973 1.5619 7.8097 7.331 6.7642 7.331 6.7642l3.9426 2.8216-2.2547 2.2547c-22.547 4.5094-41.152 23.114-41.152 23.114l3.9426 10.14 22.547-5.6305 5.0763 45.107 5.0763 1.6879 0.56683 69.909c-12.974 9.0189-10.719 12.962-10.719 12.962 14.095 7.331 25.369-7.3184 25.369-7.3184l-0.55424-5.6431c3.9426-1.1337 3.9426-4.5094 3.9426-4.5094 0.18894-37.663 6.7642-50.738 6.7642-50.738 9.0189 9.0189 19.171 47.349 19.171 47.349l4.5094 0.56683-0.56683 6.1973 5.6431 6.2099c9.0189 9.5857 17.471 4.5094 17.471 4.5094 3.3884-6.1973-7.8852-14.662-7.8852-14.662-2.8216-24.802-19.171-70.476-19.171-70.476l2.4311-1.9146c-6.1973-19.726-4.119-41.492-4.119-41.492 16.35 7.331 34.388-13.528 34.388-13.528l-0.56683-3.9552c7.331 2.2547 9.5857-2.2547 9.5857-2.2547 5.6431-3.3758-0.56683-10.14-0.56683-10.14s5.492-3.5143 5.2652-5.9706c0 0-3.2876-3.0357-18.794 12.735-22.547 12.962-51.304-1.7005-51.304-1.7005l0.20154-1.5115s6.0462-3.212 7.3814-5.177" fill="#434c9e"/> <path d="m229.46 72.182c-10.467 10.467-27.435 10.467-37.902 0-8.3765-8.3765-8.3765-21.955 0-30.332 6.6886-6.7012 17.559-6.7012 24.26 0 5.3534 5.366 5.3534 14.045 0 19.411-4.2953 4.2953-11.248 4.2827-15.531 0-3.4262-3.4262-3.4262-8.9937 0-12.42 2.746-2.746 7.1924-2.746 9.9384 0 2.1917 2.1917 2.1917 5.7565 0 7.9482-1.7509 1.7509-4.6102 1.7509-6.3611 0-1.4108-1.4108-1.4108-3.6781 0-5.0889m11.362 40.875v17.32m18.894-26.767 9.4472 12.596m-4.7236-40.925 15.745 1.5745m-23.618-20.469 12.596-7.8726m-51.947 61.394-11.022 12.596m-1.5745-31.478-9.4472 4.7236m6.2981-20.469h-12.596m18.894-15.745-9.4472-9.4472m29.916-1.5745v-12.584" fill="none" stroke="#f0be06" stroke-width="8.8677"/> <path d="m229.46 72.182c-10.467 10.467-27.435 10.467-37.902 0-8.3765-8.3765-8.3765-21.955 0-30.332 6.6886-6.7012 17.559-6.7012 24.26 0 5.3534 5.366 5.3534 14.045 0 19.411-4.2953 4.2953-11.248 4.2827-15.531 0-3.4262-3.4262-3.4262-8.9937 0-12.42 2.746-2.746 7.1924-2.746 9.9384 0 2.1917 2.1917 2.1917 5.7565 0 7.9482-1.7509 1.7509-4.6102 1.7509-6.3611 0-1.4108-1.4108-1.4108-3.6781 0-5.0889m11.362 40.875v17.32m18.894-26.767 9.4472 12.596m-4.7236-40.925 15.745 1.5745m-23.618-20.469 12.596-7.8726m-51.947 61.394-11.022 12.596m-1.5745-31.478-9.4472 4.7236m6.2981-20.469h-12.596m18.894-15.745-9.4472-9.4472m29.916-1.5745v-12.584" fill="none" stroke="#fff" stroke-width="2.2169"/> <path d="m401.19 374.42h192v-21.766h-192v21.766z" fill="#b1d253"/> <path d="m389.98 267.58h212.36l-107.5-77.164-104.86 77.164" fill="#b1d253"/> <path d="m491.55 199.64h4.6102v-48.143h-4.6102v48.143z" fill="#b1d253"/> <path d="m494.18 154.13s34.955-16.488 34.3 2.6452c0 0 1.9776 5.9328-7.2554 15.166 0 0-15.833 15.833 20.444 7.9104 0 0 19.789-6.5878 38.255 0.6676 0 0-25.066-15.178-56.066-4.6228 0 0-9.233 3.9552-0.655-13.188 0 0 2.9979-11.4-28.656 3.1113l-0.36529-11.689" fill="#b1d253"/> <path d="m507.4 354.64h4.8495v-89.698h-4.8495v89.698z" fill="#b1d253"/> <path d="m567.82 354.64h4.8495v-89.698h-4.8495v89.698z" fill="#b1d253"/> <path d="m436.69 354.64h4.8495v-89.698h-4.8495v89.698z" fill="#b1d253"/> <path d="m535.08 279.84 0.65501-4.6228-6.6004 3.9552c-7.2554-2.6326-14.511 7.923-14.511 7.923l4.6228 1.31c-3.3002 3.9678-9.888 3.3002-9.888 3.3002-16.501-5.9328-19.789 3.3002-19.789 3.3002l-7.2554-1.1085c-17.131-1.9524-5.2778 23.53-5.2778 23.53l1.9776-3.9552c5.2778 5.9328 0.27712 7.9482 0.27712 7.9482 4.585-0.26452 6.0588-2.9223 6.2351-5.895 7.5955 6.9783 2.4059 12.546 2.4059 12.546l4.9251 3.867c3.9048-5.4668 1.965-10.694-0.27711-14.057 3.8544 2.4437 5.5549 5.4794 5.5549 5.4794h4.6228c-0.94471-5.7691-12.105-9.9636-12.105-9.9636 6.8146-3.3254 6.7264-5.24 6.8775-6.4493l0.51645-0.45346c10.467 5.0889 16.602 4.1694 19.889 2.5066 0.80616 0.89433 1.5871 1.8264 2.3429 2.7712l-3.0105 3.0231c-1.5745 3.9174 3.1616 3.6403 7.2554 2.7712 3.5773 5.2904 5.366 9.2708 5.366 9.2708l-0.75577 4.4465 4.6228 2.6326c3.3002-1.31 0.655-5.2778 0.655-5.2778-0.88173-4.1568-2.8467-8.4647-5.0889-12.369l0.47866-0.15116c11.866-9.233-6.6004-15.833-6.6004-15.833 5.9328-1.9776 7.2554-11.211 7.2554-11.211 2.6326 5.9328 7.2554 0.655 7.2554 0.655 6.6004 5.2778 9.233-1.3226 9.233-1.3226l-11.866-8.5654zm-50.246 30.382c-0.55423-1.9398-1.2092-3.338-1.2092-3.338-1.9776-11.223 8.578-6.6004 8.578-6.6004l-6.6004 8.578-0.76837 1.3604zm42.008 2.028c-1.3856-2.1036-1.2344-3.338-2.8719-5.4794 9.0063 2.9097 5.4038 4.648 2.8719 5.4794" fill="#b1d253"/> <path d="m589.99 296.06 0.50385-4.2071-4.9881 3.6151c-5.492-2.4059-10.984 7.205-10.984 7.205l3.4892 1.2092c-2.494 3.6025-7.4822 2.9979-7.4822 2.9979-12.47-5.4038-14.977 3.0105-14.977 3.0105h-5.4794c-12.974-3.6025-3.993 20.444-3.993 20.444l1.4864-3.6151c3.993 5.4164 0.21413 7.2428 0.21413 7.2428 3.4766-0.23933 4.585-2.6578 4.7236-5.366 5.7439 6.3611 1.8138 11.437 1.8138 11.437l3.7411 3.5269c2.9475-4.9881 1.4738-9.7621-0.21414-12.823 2.9097 2.2421 4.1945 5.0007 4.1945 5.0007h3.5018c0.49126-6.613-10.14-8.4143-10.14-8.4143 5.1518-3.0357 6.0714-5.4416 6.1847-6.55l0.39048-0.41568c7.923 4.648 12.558 3.8041 15.052 2.2925 0.60462 0.81876 1.1966 1.6627 1.7761 2.5318l-2.2925 2.746c-1.184 3.5773 2.4059 3.3254 5.492 2.5318 2.7208 4.8118 4.4968 8.8929 4.4968 8.8929l-0.9951 3.6025 3.4892 2.4059c2.494-1.2092 0.50384-4.8118 0.50384-4.8118-0.6676-3.7915-2.1666-7.7215-3.8544-11.274 0.22673-0.08817 0.3527-0.15115 0.3527-0.15115 8.9937-8.4143-4.9881-14.423-4.9881-14.423 4.4968-1.8013 5.492-10.228 5.492-10.228 1.9902 5.4164 5.492 0.60462 5.492 0.60462 4.9881 4.8118 6.9783-1.1966 6.9783-1.1966l-8.9811-7.8223zm-38.015 27.699c-0.41568-1.7635-0.90693-3.0483-0.90693-3.0483-1.499-10.216 6.487-6.0084 6.487-6.0084l-4.9881 7.8096-0.59202 1.247zm31.793 1.8516c-1.0455-1.9146-2.0784-3.6151-2.9727-5.0259 6.8146 2.6452 4.8873 4.2575 2.9727 5.0259" fill="#b1d253"/> <path d="m459.58 296.06 0.50385-4.2071-4.9881 3.6151c-5.492-2.4059-10.984 7.205-10.984 7.205l3.5018 1.2092c-2.5066 3.6025-7.4948 2.9979-7.4948 2.9979-12.47-5.4038-14.964 3.0105-14.964 3.0105h-5.492c-12.974-3.6025-3.993 20.444-3.993 20.444l1.499-3.6151c3.993 5.4164 0.20154 7.2428 0.20154 7.2428 3.4766-0.23933 4.585-2.6578 4.7236-5.366 5.7439 6.3611 1.8139 11.437 1.8139 11.437l3.7411 3.5269c2.9475-4.9881 1.4738-9.7621-0.21413-12.823 2.9097 2.2421 4.2071 5.0007 4.2071 5.0007h3.4892c0.50385-6.613-10.14-8.4143-10.14-8.4143 5.1519-3.0357 6.0714-5.4416 6.1848-6.55l0.39048-0.41568c7.923 4.648 12.558 3.8041 15.052 2.2925 0.61722 0.81876 1.1966 1.6627 1.7761 2.5318l-2.2799 2.746c-1.1966 3.5773 2.3933 3.3254 5.492 2.5318 2.7082 4.8118 4.4843 8.8929 4.4843 8.8929l-0.9951 3.6025 3.4892 2.4059c2.494-1.2092 0.50385-4.8118 0.50385-4.8118-0.6676-3.7915-2.154-7.7215-3.8544-11.274 0.22673-0.08817 0.35269-0.15115 0.35269-0.15115 8.9937-8.4143-4.9881-14.423-4.9881-14.423 4.4968-1.8013 5.492-10.228 5.492-10.228 2.0028 5.4164 5.492 0.60462 5.492 0.60462 4.9881 4.8118 6.9909-1.1966 6.9909-1.1966l-8.9937-7.8223zm-38.015 27.699c-0.41568-1.7635-0.90693-3.0483-0.90693-3.0483-1.499-10.216 6.487-6.0084 6.487-6.0084l-4.9881 7.8096-0.59202 1.247zm31.793 1.8516c-1.0455-1.9146-2.0784-3.6151-2.9727-5.0259 6.8146 2.6452 4.8873 4.2575 2.9727 5.0259" fill="#b1d253"/> <path d="m493.41 201.89-0.91953 60.185-38.595 0.46606 39.514-60.651" fill="#b1d253"/> <path d="m492.06 197.84-40.434 63.346h-29.652l70.085-63.346" fill="#fff"/> <path d="m488.02 197.84-72.113 64.014h-14.813l86.927-64.014" fill="#b1d253"/> <path d="m497.45 261.86h45.825l-47.122-62.213 1.2974 62.213" fill="#fff"/> <path d="m496.11 197.16 51.544 64.883 23.265-0.85654-74.809-64.027" fill="#b1d253"/> <path d="m501.5 197.84 91.7 65.362-17.408-1.5619-74.293-63.8" fill="#fff"/> <path d="m405.87 371.39h186.22v-15.254h-186.22v15.254z" fill="#d6e7a4"/> <path d="m429.79 594.01s-1.7005-67.352-32.397-73.323l0.85655-5.958s20.456-4.2701 26.427-13.642l-9.3842-7.6711-2.557-7.6837-0.51645 0.0252-2.1288-13.113c-21.036-13.516-38.066-2.5066-38.066-2.5066l-3.6781 18.794-9.3212 5.3282s0.85654 12.785 19.612 21.313v5.1141s-26.427 7.6711-34.098 39.212c0 0-7.6711 18.756 6.8146 25.583l7.6711 7.6711s-4.2575 45.183-5.1141 92.922l2.5696 1.7005s2.1162 12.206 8.9307 10.505c0 0 9.422-0.83135 15.783-17.32 0 0 0-6.8272-5.9706-5.9706l7.6711-44.326 1.7131 53.698h4.2575s-4.6102 21.955 17.559 14.75c0 0 22.509-22.421 2.8971-19.864l-1.7005-68.196 4.0056-1.7005-1.4486-31.541 5.1141 20.456 2.557 0.85655s-2.557 21.313 5.1141 12.785c0 0 5.9706-5.9706 2.557-15.342l4.2701-2.557" fill="#434c9e"/> <path d="m447.27 663.6s5.303 5.8446 8.4899 3.1868l14.876-52.577-8.5024 47.274 2.6578 1.0581s2.2925-14.347 9.0189-12.747l3.338-6.0966 7.4318 2.6452-1.2092 7.6963s6.3737 1.0707 0 15.405c0 0 13.276 1.5871 26.024-3.1868 0 0-4.774-29.211-1.0581-60.008l3.7159 45.674s14.864-28.682 4.774-48.332c0 0-4.774-19.65-31.856-16.463 0 0-29.211 1.5997-32.397 28.153 0 0-2.6956 13.276-3.2246 26.553l-2.0784 21.766" fill="#fff"/> <path d="m462.13 665.2 1.9776 1.3226-1.0581 3.7159 17.131 6.6382 1.5997-3.7159 26.553-3.1868-4.9755 65.916s-7.7719 5.24-17.861-1.6627l1.0581-49.919-6.3737 48.332s-1.5745 6.5248-14.851-1.9776c0 0-9.0441-33.607-3.1994-65.463" fill="#849ccb"/> <path d="m476.64 576.72 0.35269 8.8174s11.689-2.1288 15.405-1.5997v-2.1162s-9.2456 1.5997-15.758-5.1015" fill="#c38a59"/> <path d="m476.46 577.29s-3.6403-3.6403-3.7033-10.342c0 0-5.303-5.303-5.8446-10.09 0 0-9.0441 10.341 9.5479 20.431" fill="#c38a59"/> <path d="m446.92 667.14s5.1267 5.492 9.9006 4.4339l-0.41568 9.9006s-2.1917 4.5472-3.7915-0.22673l0.26452-6.9405-1.0833 7.3058s-4.5976 2.3555-2.2673-7.4696c0 0-5.6053 6.4493-3.7285-3.9174l1.1211-3.0861" fill="#c38a59"/> <path d="m513.87 529.55c6.6382 7.52 10.279 17.131 5.3786 21.464-4.8999 4.3205-16.476 1.7257-23.127-5.7943-6.6508-7.5325-8.0616-17.143-3.1617-21.464s14.259-1.7383 20.91 5.7943" fill="#8cc724"/> <path d="m489.67 525.19-5.366 4.0182s-3.993 9.8754 5.177 20.885c0 0 11.488 11.878 26.616 8.4269l1.9272-4.7866s-13.982 3.338-23.756-7.6711c0 0-8.6158-8.4269-4.5976-20.872" fill="#8cc724"/> <path d="m482.63 529.51s-3.6025 15.519 7.4822 23.001c0 0 10.53 11.085 24.941 7.4822l-1.6627 4.1568s-11.362 7.205-27.989-8.5906c0 0-9.6991-8.0364-6.9279-24.109l4.1568-1.9398" fill="#41b23b"/> <path d="m515.33 564.15s7.205 11.916 1.1085 18.013c0 0-10.808 9.1449-33.808-9.422 0 0-15.519-13.302-19.952-34.085 0 0-5.8194-25.495 21.615-11.639l-8.3135 4.4339s-2.7712 15.796 9.1449 26.326c0 0 18.844 18.013 30.206 6.3737" fill="#8cc724"/> <path d="m465.62 669.29 13.642 5.5549s10.052-15.544 2.3051-20.293l-7.4444-2.7082s-6.0588-1.2218-8.5024 17.446" fill="#fddd03"/> <path d="m474.94 650.22 7.1672 2.5696 1.0833-5.6809-5.2778-2.1666-2.9727 5.2778" fill="#fddd03"/> <path d="m361.02 604.9 44.679 3.5647c-1.2218 52.677 2.3807 51.569 0.71798 73.184 0 0-12.47 5.8194-20.418 0.21414 0 0 4.3457-54.252-5.366-56.242l-8.6158 56.746s-7.8726 6.5752-13.805 3.275c0 0-1.8139-22.043 2.809-80.742" fill="#849ccb"/> <path d="m360.65 601.88 45.724 3.2876 1.9776-27.699s-13.856 24.411-27.044 11.211l-19.789-14.511s14.511-38.91 27.044-42.878l7.9104 2.6452-1.3226-9.233s-14.511-7.6837-31.654 8.1498c0 0-25.721 28.127-13.856 47.916l6.6004 6.5878 5.2778-39.565-0.86914 54.088" fill="#fff"/> <path d="m410.98 535.26 0.6676 5.9328 5.9328 2.6326-6.6004-8.5654" fill="#fff"/> <path d="m425.49 593.3s-4.6102 5.9328-9.888 1.3226l-3.3002-22.434 7.9104-16.728s5.7061 16.753 5.2778 37.839" fill="#fff"/> <path d="m483.54 736.13s5.4794 5.4794 13.856 4.182c0 0-1.0455 8.3639-16.476 1.0455l0.79356-6.021 1.8264 0.79356" fill="#fff"/> <path d="m479.09 735.86-0.52905 4.4465s-8.0994 9.4094-23.001-6.5374c0 0 2.3555-1.8264 8.112-1.31 0 0 7.5703 8.3639 15.418 3.401" fill="#fff"/> <path d="m454.51 734.82s12.81 15.947 24.046 7.0539l-0.25192 2.091s-10.455 9.1574-24.84-8.3639l1.0455-0.78097" fill="#fff"/> <path d="m480.66 742.4s10.455 6.7894 16.463 0.78096c0 0-3.6655 8.6284-16.728 1.0455l0.26452-1.8264" fill="#fff"/> <path d="m365.62 573.29 23.013 15.141s6.6634 5.4542 16.35-12.118c0 0-3.6277 3.6403-13.314-3.6277l-4.2449 5.4542-4.8495-4.2449 2.4311-4.837s-7.268-4.8496-7.268-7.268c0 0-4.3583 10.619-12.118 11.5" fill="#ce9410"/> <path d="m379.6 559.64 6.8775 6.7012 3.1616-3.9048 5.7691 3.5269-1.8516 4.837s9.1071 8.7544 14.876-0.36529c0 0 11.349-16.929 11.16-21.59l-27.346-14.322s0.74317 2.0532-1.1085 4.4717c0 0-10.984 17.484-11.538 20.645" fill="#ce9410"/> <path d="m385.18 573.41 1.4864 1.31 5.3912-7.2554-2.2295-1.6753-4.648 7.6207" fill="#ce9410"/> <path d="m364.9 569.7s11.727-27.724 23.631-36.655c0 0 1.4864 2.2295-2.0532 6.7012 0 0-6.8775 12.458-8.3639 16.375 0 0-7.8223 16.551-13.213 13.579" fill="#ce9410"/> <path d="m399.14 524.3 2.5948 1.2974s2.4185 7.4444 1.6753 12.47l-4.648-2.6074 0.37789-11.16" fill="#ce9410"/> <path d="m403.79 527.27s2.4185 5.0259 1.4864 11.727l3.1616 1.6753s1.31-10.606-4.648-13.402" fill="#ce9410"/> <path d="m368.81 491.67s4.585 9.17 20.633 9.6235c0 0 19.247 1.373 23.832-6.4115l8.2505 5.0385s-10.543 14.209-32.536 14.209c0 0-20.633-1.8264-27.51-17.874l7.331-4.585" fill="#ec950d"/> <path d="m374.31 472.41-1.373 13.302s4.119 5.492 17.874 5.492c0 0 8.7166 1.839 18.34-5.0385l-2.2925-12.369s-13.302 10.996-32.549-1.3856" fill="#ec950d"/> <path d="m403.2 471.96c0 1.7761-3.3254 3.6655-10.543 3.6655s-15.594-1.8894-15.594-3.6655 5.8572-3.212 13.075-3.212c7.205 0 13.062 1.436 13.062 3.212" fill="#ec950d"/> <path d="m418.78 599.4s2.2925 2.2925 5.0385-0.91952c0 0 2.7586 11.009-3.6655 13.302 0 0-2.746-6.4241-1.373-12.382" fill="#fbcaa5"/> <path d="m380.74 514.59s4.119 3.212 14.662 1.3856l-1.373 2.2925s-6.8775-0.91952-12.836-0.46606l-0.45346-3.212" fill="#e4a369"/> <path d="m390.9 686.36s13.024 1.6627 16.627-4.1568c0 0 5.8194-4.1568 7.205 0.83135 0 0-6.3737 15.519-21.615 10.53 0 0-2.7712-3.3254-2.2169-7.205" fill="#fff"/> <path d="m358.76 688.3s9.6991 2.4941 15.241-6.0966l0.83135-4.9881s2.5066-0.96991 4.4339 1.3856c0 0-5.5423 15.796-19.952 12.193l-0.55423-2.4941" fill="#fff"/> <path d="m393.12 695.78s10.253 3.8796 18.844-5.5423c0 0-9.1449 13.856-18.844 5.5423" fill="#fff"/> <path d="m359.87 692.74s10.53 3.8796 17.458-8.3135c0 0-10.53 17.458-17.458 8.3135" fill="#fff"/> <path d="m348.72 304.38s9.0189 1.4612 14.045-5.0385 0.20154 0.41567 0.20154 0.41567-3.9804 10.064-14.246 4.6228" fill="#434c9e"/> <path d="m430.76 316.02s0.85654 7.331 7.7467 6.8901c0 0 3.4514 0 5.6053-5.1644 0 0-0.85654 7.331-5.1644 7.7593 0 0-8.6284-0.42828-8.1875-9.485" fill="#b1d253"/> <path d="m364.58 280.31s5.7187 0.20154 6.5374 2.4563l1.4234-0.21414s-2.8593-3.2624-7.9608-2.2421" fill="#fff"/> <path d="m309.8 436.06s7.4318 2.62 13.554-1.31c0 0 0.86914-44.591 9.1826-55.512 0 0 6.55 2.1917 21.414 48.949 0 0 7.4318 5.2526 14.423 0.44087 0 0-6.8146-41.593-20.544-66.231l-37.285 3.9174c-0.45347 59.933-0.36529 59.555-0.74318 69.745" fill="#7986c0"/> <path d="m277.02 315.43 5.6809 8.3009 16.614-4.7992s5.6683 39.338 4.7992 45.447c0 0 36.328-6.6508 47.085-3.9552 0 0-6.8775-36.252-2.9349-43.684 0 0 14.851 9.6235 33.644-11.803l-3.0483-6.1092s-20.985 13.541-52.022-1.31c0 0-5.6809 6.1092-14.423-0.88173 0 0-21.489 5.0637-35.395 18.794" fill="#fff"/> <path d="m313.98 295.45 1.9272-2.1036s5.5675 4.9251 9.8124 1.2218l0.17635 1.2344s-3.3254 4.8999-11.916-0.3527" fill="#fff"/> <path d="m304.97 278.5s5.8068 16.048 18.139 14.662c0 0 10.745 0.69279 17.018-15.582 0 0 4.6102 2.091 4.837-4.4213 0 0 0.70538-5.1141-3.4892-1.8642l-1.3982-0.22673-1.8516-4.8873-5.8195 0.46606-2.557-2.3303-1.6249 2.7964s0-5.1141-25.356 5.8069l0.23933 2.5696-1.6249 0.69279s-3.7285-2.7964-2.7964 2.3177c0 0 3.4892 3.9552 5.1141 0.70539l1.1714-0.70539" fill="#e5ad93"/> <path d="m292.41 275.71s29.526-19.537 56.267-13.251l-13.717-6.9783s-12.092-3.9552-34.652 8.83l-7.8978 11.4" fill="#f79c0e"/> <path d="m302.64 244.79c10.228-6.5122 23.945-3.7285 23.945-3.7285 5.8194 1.1588 5.1267 3.2624 5.1267 3.2624l2.091 6.0462c-20.469-3.0231-34.652 8.6032-34.652 8.6032l-1.8642-5.3534c-2.3177-4.4213 4.3457-7.9986 4.3457-7.9986l1.0077-0.83135" fill="#f79c0e"/> <path d="m321.71 273.62c0 2.1792-2.2421 3.9552-5.0007 3.9552s-4.7866-1.5241-5.6935-3.4892c-1.2596-2.683 2.9349-4.4213 5.6935-4.4213s5.0007 1.7635 5.0007 3.9552" fill="#434c9e"/> <path d="m336.83 272.45c0 2.3177-2.8342 4.4213-5.4668 4.4213s-4.774-1.8768-4.774-4.182 2.1414-4.1819 4.774-4.1819c6.1596 0 5.4668 1.6375 5.4668 3.9426" fill="#434c9e"/> <path d="m320.16 272.08s3.5773-3.0483 7.9356-0.03779l-0.05039 1.1966s-3.8418-2.0784-7.4822 0.37788l-0.40308-1.5367" fill="#434c9e"/> <path d="m326.59 272.69s0 1.8642 3.0231 5.1141c0 0 3.4892 2.557-3.7159 4.1819l-1.6249-1.3856 3.7159-1.8642s-2.091-3.7159-1.3982-6.0462" fill="#434c9e"/> <path d="m317.76 284.09s6.739 4.182 12.092-0.23932c0 0-3.0231 9.3086-12.092 0.23932" fill="#434c9e"/> <path d="m302.4 277.11s-2.091-1.3982-1.8516 0.46606l1.8516 1.6249v-2.091" fill="#434c9e"/> <path d="m341.47 272.45s1.6249-1.8516 1.8642 0l-1.6249 3.4892-0.23933-3.4892" fill="#434c9e"/> <path d="m335.89 270.82 2.3303-0.22673 2.091-2.7964-0.70539 4.1945-3.4766 0.45347-0.23933-1.6249" fill="#434c9e"/> <path d="m311.94 273.16-3.0231 0.46606-4.9125-1.7131-2.5192 1.247 7.205 2.3303 3.7159-0.46606-0.46606-1.8642" fill="#434c9e"/> <path d="m380.81 297.52 2.4563 2.4563s6.2351-4.6858 8.4647-3.7915c0 0 2.4437 1.7761 2.2169-1.1085 0 0-3.7789-8.6914-13.138 2.4437" fill="#e5ad93"/> <path d="m386.17 291.51s20.922-14.473 5.1141-0.45347c0 0-3.5521-0.21413-5.1141 0.45347" fill="#e5ad93"/> <path d="m390.61 297.29s-2.4437 0.45347-2.0028 1.5619c0 0 3.5647 2.8971 6.0084-0.89433 0 0-2.2169 0.45347-4.0056-0.6676" fill="#e5ad93"/> <path d="m387.27 299.97s0.89433 1.1085 3.5647 1.1085c0 0-3.1113 2.0028-5.3408 0.44087 0 0-0.22673-1.7761 1.7761-1.5493" fill="#e5ad93"/> <path d="m302.78 445.12s5.6053 0 7.3562 4.1945c0 0-5.2526 3.8544-10.165 0.3527l-1.3982 1.4108s11.563 5.5927 22.774-7.0161v-2.7964s-4.2071 5.6053-8.0616 5.6053c0 0-2.4563-5.2526-7.0035-4.5598l-3.5018 2.809" fill="#ce925f"/> <path d="m357.41 436.72s9.1071 16.451 21.023 9.7999l-0.35269-2.4563s-6.3107 4.5598-10.505-0.69279c0 0 0.35269-4.2071 7.0035-4.2071l-2.809-3.1491s-5.6053-1.3982-8.4017 4.8999l-5.958-7.3562v3.1616" fill="#ce925f"/> <path d="m358.47 431.8s5.2526 2.1036 9.7999-1.0455l1.0581 2.7964s-5.6053 2.1036-6.3107 4.2071c0 0-3.5018-3.5018-4.5472-5.958" fill="#e5ad93"/> <path d="m369.67 442.66s3.8544-3.1491 6.3107-2.1036c0 0 0.35269 7.0035-6.3107 2.1036" fill="#e5ad93"/> <path d="m308.03 440.56s5.2526 1.7509 6.2981 3.8544l6.3107-4.8999s-5.2526 1.0455-10.153-1.7509l-2.4563 2.7964" fill="#e5ad93"/> <path d="m300.32 447.92s2.4563-4.1945 8.0616 0.70539c0 0-5.2526 1.3982-8.0616-0.70539" fill="#e5ad93"/> <path d="m496.35 162.9-0.25193-7.986s25.004-12.369 30.407-1.8013c0 0 3.3506 9.2708-5.6683 17.521 0 0 6.1847-9.2834 2.8342-12.369 0 0-5.4038-6.7012-27.321 4.6354" fill="#d6e7a4"/> <path d="m520.32 176.3s-1.2848 2.8342 6.1848 0.26452c0 0 15.985-6.1847 37.121-0.78097 0 0-16.488-0.25192-33.506 4.648 0 0-10.316 1.5367-9.7999-4.1316" fill="#d6e7a4"/> <path d="m79.688 368.97-0.44087-52.174 72.479-66.495 80.691 63.51v54.869l-152.73 0.28971" fill="#b1d253"/> <path d="m227.93 365.37 2.0406-60.147-77.29-57.741-75.073 65.714 1.0329 55.776 40.207 0.12596 109.08-3.7285" fill="#b1d253"/> <path d="m82.509 366.91 33.67 0.35269s0.69279-19.31-15.267-36.265l20.179-10.455h26.893l17.937 9.7117s-14.108 8.112-16.816 37.008l76.069-0.34009 0.13856-51.569-144.64-0.13856 1.839 51.695" fill="#d6e7a4"/> <path d="m82.232 313.06 69.594-60.197 86.549 60.147-156.14 0.05039" fill="#d6e7a4"/> <path d="m146.49 368.36s3.7411-29.148 14.196-37.36l-13.44-7.4696-0.75577 44.83" fill="#fff"/> <path d="m118.85 368.36s-2.154-22.661-13.453-35.861l14.196-6.7264-0.74318 42.588" fill="#fff"/> <path d="m44.494 183.17c0 1.8516-1.499 3.3506-3.3506 3.3506s-3.3506-1.499-3.3506-3.3506 1.499-3.3506 3.3506-3.3506 3.3506 1.499 3.3506 3.3506z" fill="#d6e190" stroke="#b1d253" stroke-width="1.1085"/> <path d="m50.25 177.22c0 1.8516-1.499 3.3506-3.3506 3.3506s-3.3506-1.499-3.3506-3.3506 1.499-3.3506 3.3506-3.3506 3.3506 1.499 3.3506 3.3506z" fill="#d6e190" stroke="#b1d253" stroke-width="1.1085"/> <path d="m55.453 171.15c0 1.8516-1.499 3.3506-3.3506 3.3506s-3.3506-1.499-3.3506-3.3506 1.499-3.3506 3.3506-3.3506 3.3506 1.499 3.3506 3.3506z" fill="#d6e190" stroke="#b1d253" stroke-width="1.1085"/> <path d="m61.524 165.52c0 1.839-1.499 3.3506-3.3506 3.3506s-3.3506-1.5116-3.3506-3.3506c0-1.8516 1.499-3.3506 3.3506-3.3506s3.3506 1.499 3.3506 3.3506z" fill="#d6e190" stroke="#b1d253" stroke-width="1.1085"/> <path d="m68.452 160.32c0 1.8516-1.499 3.338-3.3506 3.338-1.839 0-3.338-1.4864-3.338-3.338s1.499-3.3506 3.338-3.3506c1.8516 0 3.3506 1.499 3.3506 3.3506z" fill="#d6e190" stroke="#b1d253" stroke-width="1.1085"/> <path d="m35.626 185.02 29.047-31.213s12.571-10.833-12.571-0.85654l-23.843 28.178 7.3675 3.8922z" fill="#d6e190" stroke="#b1d253" stroke-width="1.1085"/> <path d="m20.464 225.33c0.5832 1.7509-0.36655 3.6403-2.1225 4.2323-1.7534 0.57942-3.6491-0.36529-4.2323-2.1288-0.58321-1.7509 0.36655-3.6403 2.1212-4.2323 1.7546-0.57943 3.6504 0.36529 4.2336 2.1288z" fill="#d6e190" stroke="#b1d253" stroke-width="1.1085"/> <path d="m24.05 217.86c0.58194 1.7509-0.36781 3.6529-2.1225 4.2323-1.7546 0.59202-3.6491-0.36529-4.2323-2.1162s0.36529-3.6529 2.1199-4.2323c1.7546-0.59202 3.6491 0.36529 4.2348 2.1162z" fill="#d6e190" stroke="#b1d253" stroke-width="1.1085"/> <path d="m27.071 210.46c0.58447 1.7509-0.36655 3.6403-2.1212 4.2323-1.7546 0.57942-3.6491-0.36529-4.2323-2.1288-0.5832-1.7509 0.36529-3.6403 2.1199-4.2323 1.7559-0.57943 3.6504 0.36529 4.2336 2.1288z" fill="#d6e190" stroke="#b1d253" stroke-width="1.1085"/> <path d="m31.051 203.2c0.58446 1.7635-0.36655 3.6529-2.1212 4.2323-1.7546 0.59202-3.6491-0.36529-4.2323-2.1162s0.36655-3.6529 2.1199-4.2323c1.7559-0.57942 3.6504 0.36529 4.2336 2.1162z" fill="#d6e190" stroke="#b1d253" stroke-width="1.1085"/> <path d="m34.884 196.08c0.5832 1.7509-0.36655 3.6403-2.1212 4.2323-1.7546 0.57943-3.6504-0.36529-4.2336-2.1288-0.58321-1.7509 0.36655-3.6403 2.1212-4.2323 1.7546-0.57942 3.6504 0.36529 4.2336 2.1288z" fill="#d6e190" stroke="#b1d253" stroke-width="1.1085"/> <path d="m12.638 229.87 17.714-38.784s8.5113-14.246-12.202 3.1491l-13.737 34.262 8.2253 1.373z" fill="#d6e190" stroke="#b1d253" stroke-width="1.1085"/> <path d="m47.454 158.21 3.8922-4.3709-3.8922-14.725-1.6501 1.2974 1.5367 11.072-2.4815 2.0028-10.726-1.1714-0.35395 1.5241 13.674 4.3709z" fill="#d6e190" stroke="#b1d253" stroke-width="1.1085"/> <path d="m46.875 150.82c0 1.1337-0.91952 2.0532-2.0658 2.0532-1.1337 0-2.0658-0.91952-2.0658-2.0532 0-1.1463 0.93212-2.0658 2.0658-2.0658 1.1463 0 2.0658 0.91952 2.0658 2.0658z" fill="#d6e190" stroke="#b1d253" stroke-width="1.1085"/> <path d="m38.019 161.34c0 1.1337-0.91952 2.0532-2.0658 2.0532-1.1324 0-2.0557-0.91952-2.0557-2.0532 0-1.1463 0.9233-2.0658 2.0557-2.0658 1.1463 0 2.0658 0.91952 2.0658 2.0658z" fill="#d6e190" stroke="#b1d253" stroke-width="1.1085"/> <path d="m31.306 168.88c0 1.1337-0.9233 2.0532-2.0633 2.0532s-2.062-0.91952-2.062-2.0532c0-1.1463 0.9233-2.0658 2.062-2.0658s2.0633 0.91952 2.0633 2.0658z" fill="#d6e190" stroke="#b1d253" stroke-width="1.1085"/> <path d="m38.372 169.06 5.3156-6.1344s-12.029-2.2421-5.3156 6.1344z" fill="#d6e190" stroke="#b1d253" stroke-width="1.1085"/> <path d="m32.306 176.13 5.298-6.1344s-12.016-2.2295-5.298 6.1344z" fill="#d6e190" stroke="#b1d253" stroke-width="1.1085"/> <path d="m11.475 195.99c0.33506 1.0959-0.27586 2.2421-1.3642 2.5822-1.0883 0.3275-2.2434-0.27712-2.5772-1.3604-0.33758-1.0959 0.2746-2.2547 1.3629-2.5822 1.0883-0.3401 2.2434 0.27712 2.5784 1.3604z" fill="#d6e190" stroke="#b1d253" stroke-width="1.1085"/> <path d="m7.2758 205.17c0.33506 1.0959-0.2746 2.2547-1.3642 2.5822-1.0883 0.3401-2.2421-0.27712-2.5784-1.3604-0.33506-1.0959 0.27586-2.2421 1.3642-2.5822 1.0896-0.3275 2.2446 0.27712 2.5784 1.3604z" fill="#d6e190" stroke="#b1d253" stroke-width="1.1085"/> <path d="m14.085 203.27 3.2649-7.4192s-12.148 1.3982-3.2649 7.4192z" fill="#d6e190" stroke="#b1d253" stroke-width="1.1085"/> <path d="m10.366 211.81 3.2649-7.4192s-12.148 1.3982-3.2649 7.4192z" fill="#d6e190" stroke="#b1d253" stroke-width="1.1085"/> <path d="m6.8248 222.37 2.1212-5.4416-8.7884-12.445-1.0934 1.7887 5.303 9.8502-1.6199 2.7334-10.462 2.6452 0.20406 1.5619 14.336-0.69279z" fill="#d6e190" stroke="#b1d253" stroke-width="1.1085"/> <path d="m3.5523 215.6c0.39678 1.0707-0.14612 2.2547-1.2143 2.6578-1.0669 0.39048-2.2547-0.15116-2.6528-1.2092-0.39804-1.0707 0.14612-2.2547 1.213-2.6578s2.256 0.13856 2.654 1.2092z" fill="#d6e190" stroke="#b1d253" stroke-width="1.1085"/> <path d="m151.83 252.86-0.54163 0.6802-47.135 59.467 27.132-0.36529 20.544-59.782" fill="#fff"/> <path d="m159.89 313.01-8.0616-60.147 41.076 60.147h-33.015" fill="#fff"/> <path d="m159.52 315.21h33.38v52.073h-33.015v-30.432s4.3457-5.8698 6.0336-6.6004l-6.8775-3.2876 0.47865-11.752" fill="#fff"/> <path d="m130.55 315.21h-26.767v14.309l16.501-8.8048 9.9006-0.36529 0.36529-5.1393" fill="#fff"/> <path d="m104.15 334.65s11.299 14.297 12.029 32.612l-11.992-0.02519-0.03779-32.586" fill="#fff"/> <path d="m90.646 517.75s27.195 8.1624 45.989-3.464c1.2092-0.74317 15.141 37.915 1.0581 82.279 0 0-1.3604 3.401-12.218-2.028 0 0 5.3912-32.864-7.268-53.786l-8.3261 61.923s-5.0007 3.8166-12.458-3.6403c0 0-8.578-60.122-5.8572-77.076" fill="#89a8d2"/> <path d="m111.04 404.17s26.339 5.7061 40.976-7.2932c0 0 17.143-1.1085 15.922 2.5444 0 0 3.9804 7.8348-35.836 14.927 0 0-28.543 4.2701-32.209-5.0763 0 0 2.6074-0.62981 11.148-5.1015" fill="#41b23b"/> <path d="m113.8 396.48s20.733 5.2652 34.564-4.8999c0 0-2.4437-16.262-18.302-12.193 0 0-19.512 1.6501-16.262 17.093" fill="#41b23b"/> <path d="m121.19 399.12c0 1.3982-1.1211 2.5192-2.5066 2.5192-1.3982 0-2.5192-1.1211-2.5192-2.5192 0-1.3856 1.1211-2.5066 2.5192-2.5066 1.3856 0 2.5066 1.1211 2.5066 2.5066" fill="#41b23b"/> <path d="m132.18 399.71c0 1.3982-1.1337 2.5192-2.5192 2.5192s-2.5192-1.1211-2.5192-2.5192c0-1.3856 1.1337-2.5066 2.5192-2.5066s2.5192 1.1211 2.5192 2.5066" fill="#41b23b"/> <path d="m143.55 397.28c0 1.3856-1.1211 2.5066-2.5066 2.5066-1.3982 0-2.5192-1.1211-2.5192-2.5066 0-1.3982 1.1211-2.5192 2.5192-2.5192 1.3856 0 2.5066 1.1211 2.5066 2.5192" fill="#41b23b"/> <path d="m126.08 404.18c0 1.3982-1.1337 2.5192-2.5192 2.5192s-2.5192-1.1211-2.5192-2.5192c0-1.3856 1.1337-2.5066 2.5192-2.5066s2.5192 1.1211 2.5192 2.5066" fill="#41b23b"/> <path d="m139.49 402.96c0 1.3982-1.1337 2.5192-2.5192 2.5192s-2.5192-1.1211-2.5192-2.5192c0-1.3856 1.1337-2.5066 2.5192-2.5066s2.5192 1.1211 2.5192 2.5066" fill="#41b23b"/> <path d="m150.87 398.5c0 1.3856-1.1211 2.5066-2.5066 2.5066-1.3982 0-2.5192-1.1211-2.5192-2.5066 0-1.3982 1.1211-2.5192 2.5192-2.5192 1.3856 0 2.5066 1.1211 2.5066 2.5192" fill="#41b23b"/> <path d="m93.833 436.14c-33.796 33.204-5.6557 57.88-5.6557 57.88l-2.4689 16.564c28.682 16.312 52.413 0 52.413 0-7.1798-12.193-4.1064-40.006-4.1064-40.006l12.911 25.117 5.7439-3.5899c-7.1672-40.182-25.104-57.401-25.104-57.401s-4.8873 10.808-9.3716 0.71798c0 0-0.3275 8.2253-7.0539 11.324l-0.40308-10.19-3.212 1.9146-1.5493-7.2428s-6.7012 1.8768-11.815 4.9125" fill="#fff"/> <path d="m101.01 432.55s17.219 31.566 0 51.657l-6.4619-5.7313s10.052-14.347-2.154-40.182l-3.5899-2.8719 12.206-2.8719" fill="#434c9e"/> <path d="m88.996 473.91 20.393 16.098 3.8166-1.499s2.9727-7.7971 7.986-6.3611l3.93-5.177 5.0259 3.5899-3.338 4.9503s2.1792 5.1518-6.4241 11.614c0 0 2.154 4.3079-2.154 5.0259 0 0 0 2.8594-3.5899 2.8594 0 0-0.17634 4.4968-3.5395 3.6781 0 0-3.7285 3.3632-11.526-6.5374l-12.722-8.5654 14.158 6.1218 5.0259-8.3261-17.043-17.471" fill="#434c9e"/> <path d="m78.05 452.64s6.4619-13.629 12.193-15.783c0 0-2.1414-8.6158-10.757-4.3079 0 0-1.436 11.488-1.436 20.091" fill="#3491cb"/> <path d="m76.614 479.91s4.3079 12.193 10.052 15.065c0 0-12.206 3.5899-10.052-15.065" fill="#3491cb"/> <path d="m84.902 428.63s6.0588-1.1085 6.7768 3.1994l14.977-4.648v-4.3079l-21.754 5.7565" fill="#3491cb"/> <path d="m127.87 417.24c-2.2421 8.9685-5.5423 3.993-5.5423 3.993l0.3275-3.8544 5.2148-0.13855" fill="#f68711"/> <path d="m109.24 417.12s6.7264 1.1211 11.589 0c0 0-1.499 8.9685-4.119 10.845 0 0-1.3982 10.619-4.0182 13.604l-0.46606-9.4976-2.6074 2.9853s-2.2421-11.954-0.37789-17.937" fill="#f68711"/> <path d="m103.63 500.84 3.7411-8.6032 5.9706-1.499-0.74317 2.9979s8.9685 4.4842 5.6053 6.7264c0 0-1.1211 3.3632-4.4842 2.62 0 0 1.499 2.9853-3.7411 3.7285 0 0-5.9706 0.37788-6.3485-5.9706" fill="#fbcaa5"/> <path d="m114.1 488.5s3.7285-7.4696 8.2253-3.7285l2.9853 1.8642s0.74318 3.7411-5.9832 8.5906l-3.7411-2.6074-1.4864-4.119" fill="#434c9e"/> <path d="m115.22 487.76-0.75577 4.8622 4.8621 2.6074s9.3464-4.8495 4.119-10.833c0 0-4.4968-2.2421-8.2253 3.3632" fill="#b1d253"/> <path d="m122.69 482.15 2.62 1.499 2.2421-2.9979-1.8642-1.8642-2.9979 3.3632" fill="#b1d253"/> <path d="m146.99 498.97 6.7264-4.1064s4.8495 12.697 3.3632 17.937l-1.499-4.8621s0 5.9832-2.9853 6.3611l-2.2421-13.831s-4.119 16.816-3.3632-1.499" fill="#fbcaa5"/> <path d="m504.6 292.01s6.7768 3.2372 10.027 0.57942c0 0-5.0133 11.5-10.027-0.57942" fill="#fff"/> <path d="m516.69 292.01s-7.3814 17.395-13.868-0.59203l-4.119-0.59202s0.28971 11.211 9.7243 12.382c0 0 9.7369 0.3023 8.2631-11.198" fill="#d6e7a4"/> <path d="m518.45 291.71s4.4213-12.092 11.79-10.908l3.8418-3.2498-0.88173 2.9601 11.79 7.6585s-2.3555 5.3156-7.6711-0.28971c0 0-4.7866 6.3359-6.487-1.184l-1.7635 0.30231s-1.184 12.08-8.5528 13.264c0 0 3.5395 2.3555 0.88174 6.1973 0 0 3.338 4.1945 6.5752 10.09 0 0 6.9909 10.845 5.8068 15.556l-2.6452-1.7635 0.57942-3.8292-13.264-19.461s-9.7243 4.711-20.645-3.2498c0 0-4.4213 6.7768-10.027 7.6711 0 0 8.2631 10.316 5.6053 17.395l-2.9475-2.3555s3.8292-5.0133-5.0133-14.158c0 0 0.16376-2.9601 3.4766-5.0511l5.0763-7.331s-6.4871-7.3814 3.2498-8.8552c0 0-1.7761 11.5 11.5 14.158 0 0 12.621-0.59203 9.7243-13.566" fill="#d6e7a4"/> <path d="m516.29 286.19 3.3128 1.0455s3.6655-7.1421 7.5074-7.3184c0 0-4.8873-0.70538-10.82 6.2729" fill="#fff"/> <path d="m490.3 296.66-8.2001-0.69279s-13.264-3.4892-5.0637 18.668c0 0 2.4437-1.3982 0-8.0364 0 0 7.5074 9.5983 5.0637 13.264 0 0 4.0182-2.7964 0.52904-11.337 0 0-1.0581-3.6655-3.6655-6.9783 0 0-4.0182-6.4493 12.206-3.1364l-0.86914-1.7509" fill="#fff"/> <path d="m484.72 298.41s-5.0637-0.88174-5.0637 1.7383c0 0-0.51645 0.6928 2.091 3.6655 0 0-2.6074-4.1945 2.9727-5.4038" fill="#fff"/> <path d="m507.39 309.22h2.091v-4.711h-2.091v4.711z" fill="#b1d253"/> <path d="m508.58 290.39h2.4437v-22.85h-2.4437v22.85z" fill="#d6e7a4"/> <path d="m508.4 309.04 2.4437 2.091v41.517h-2.2673l-0.17635-43.608" fill="#d6e7a4"/> <path d="m256.82 278.22h-40.144v90.794h39.703v-53.068s-5.2274-10.228-7.2428-11.513l8.2631-5.7313-0.57942-20.481" fill="#fff"/> <path d="m218.72 434.82s-24.411 18.277 0.64241 15.065l12.206-4.3205s1.9272-7.0665-2.5696-11.563l3.212-1.2848s1.9272-44.314 15.405-48.168c0 0 18.63 12.848 25.054 50.095l2.5696 0.6424s-0.6802 7.1421 2.8845 10.001l2.3177 1.7761c8.8803 6.9657 12.873 3.0987 12.873 3.0987 2.6578-3.4262-0.74317-9.0945-0.74317-9.0945l-5.7691-7.0665s3.7411-32.952-14.901-64.165l4.6228-2.62s-10.921-15.418-7.7089-35.332c0 0 9.6361 12.848 10.921 19.272 0 0-10.178 15.43 1.6753 5.1896 0 0-5.429 14.057 1.3982 9.0441 0 0 1.0077 7.2302 6.6382-3.0105l1.8013-12.458s-3.6529-32.725-29.349-45.938l10.027-3.7033s-10.644-13.1-8.1875-29.475c0 0 51.569-13.919-4.9125-16.375 0 0-6.55-14.322-22.925-13.919 0 0-17.181 1.2344-21.288 18.428 0 0-59.341 6.55-1.2218 13.503 0 0-3.6781 15.959-8.1876 21.288 0 0 9.8251 7.3688 15.959 7.3688 0 0-32.334 20.469-19.638 51.985 0 0-3.1113 12.369 2.3177 16.488 0 0 1.2974 0.42827 2.6074 0 0 0 3.6781 2.3807 4.7614 0.86914 0 0 1.965-2.1666 0.22673-8.8929 0 0 3.9048 2.3807 4.774 0.21414 0 0-2.1792-6.0714-6.5122-8.0238l0.655-1.5241s1.7257-13.239 6.0714-19.524c0 0 6.7264 17.572 1.9524 33.418 0 0-3.6907 7.1547 5.2022 4.5472 0 0-11.059 16.488-4.3331 64.871" fill="#434c9e"/> <path d="m217.64 257.7s15.833-31.617 38.28-2.5318c0 0-18.416-2.5822-38.28 2.5318" fill="#f57fc5"/> <path d="m215.11 266.39s23.467-7.6459 42.865-2.5444c0 0 3.9174 2.1162 4.4213 4.6732 0 0 17.61-2.5192 18.025-6.7138 0 0-6.6382-7.6585-46.43-3.0609 0 0-35.206 0.50385-41.832 7.1421 0 0-2.557 4.585 20.91 4.0812l2.0406-3.5773" fill="#f57fc5"/> <path d="m226.55 370.85s24.034-5.5423 42.651-1.3982c0 0 17.194 30.924 15.783 63.397 0 0-4.0308 3.8418-9.6613-0.64241 0 0-8.578-39.514-26.502-49.793 0 0-4.4339-2.9223-10.556 7.7845 0 0-8.0994 18.642-7.7971 41.492l-10.253 0.51644s-4.7236-39.993 6.3359-61.356" fill="#34b5ed"/> <path d="m222.42 271.28c-2.0406 3.0609-2.1288 6.1218-2.1288 6.1218s-3.149-1.8516-3.0609 2.0406c0 0 0 4.9125 3.6151 4.9125 0 0 5.4668 13.251 17.143 14.36 10.153 0.95731 16.589-15.103 16.589-15.103 4.2575 0.55423 3.0483-6.1218 3.0483-6.1218-0.91953-2.1288-2.683-0.27711-2.683-0.27711-1.3856-6.7642-4.5346-8.6158-4.5346-8.6158l-16.035 0.55424-1.9524-2.8719-1.0077 3.6151-8.8048 1.2974" fill="#fde3ac"/> <path d="m234.95 275.02 5.1644 0.05038s3.0609-3.5773 6.6382-2.557c0 0 3.8292 0.27711 4.0812 3.7915 0 0 1.5871 3.338-4.2701 4.0308 0 0-4.2701 0.50385-6.4493-3.2246l-3.0609 1.0203-2.0406 5.6053 4.585 1.0203v2.0406s-5.6431 0.27712-7.5451-1.965c0 0-0.16375-0.6802 0.69279-2.4059l1.902-3.6277s-0.69279 1.7257-4.837 1.3856c0 0-4.4842-0.17635-4.8244-3.4514l-1.8894-0.35269 0.16375-1.373h1.7257s0.86914-3.4514 6.3863-2.4185c0 0 2.683 0.37789 3.5773 2.4311" fill="#434c9e"/> <path d="m229.54 288.09s6.2099 5.5172 16.035-0.16375c0 0-7.5829 10.342-16.035 0.16375" fill="#434c9e"/> <path d="m249.82 277.06h2.2673v-1.499h-2.2673v1.499z" fill="#434c9e"/> <path d="m233.24 299.19s4.0182 3.0105 9.7999 0.25193l0.25193 2.7586s-4.0182 7.7971-10.052 0.25192v-3.2624" fill="#fde3ac"/> <path d="m216.89 307.59s8.9559-7.7971 14.838-7.6459v3.5144s2.5192 3.7663 7.0413 4.0182c0 0 5.5298-0.49125 6.2855-5.2778v-3.2624s9.7999 0.75577 22.383 10.304c0 0 19.348 17.861 21.867 39.98 0 0-3.0105-1.5116-7.2932 0.25192 0 0-7.5325-18.101-15.833-25.394 0 0-5.0259 25.898 7.2932 41.983 0 0-27.661-3.2624-53.055 2.5192 0 0 5.2778-24.89-2.7712-39.225 0 0-8.515 5.6053-8.5402 24.89 0 0-3.7789 1.5116-6.0336-0.75577 0 0-6.1848-14.977 2.3681-31.075 0 0 6.4241-11.815 11.45-14.826" fill="#fff"/> <path d="m252.09 275.56 3.2624-2.0154v1.5115l-3.2624 2.0028v-1.499" fill="#434c9e"/> <path d="m223.26 275.01-2.5948-2.4689-1.0077 1.7635 3.4388 2.0784 0.16375-1.373" fill="#434c9e"/> <path d="m280.5 351.74s6.55-3.275 9.0567-0.75577c0 0 0.44087 13.818-5.2778 15.078l-0.3275-1.8013s3.0861-3.4766 1.3352-5.9832c0 0-1.5116 6.2729-4.2701 6.7894-0.0126 0-1.2596-1.5115 0.9951-6.0462l0.75577-4.774-2.2673 1.2596s-1.6627 2.4563-3.6781 2.7082c0 0 1.6123-3.9174 3.6781-6.4745" fill="#fde3ac"/> <path d="m202.56 354.75s3.7663 3.5269 7.5451 0.25192c0 0 10.052 10.052 0.25193 4.522 0 0 2.0028 8.3009 0 9.5605 0 0-1.0077 1.5115-3.275-5.7817 0 0-0.25192 3.5144 0.25193 5.5297 0 0-3.275-0.75577-3.275-5.2778 0 0-1.499 2.5066-0.23933 4.774 0 0-3.7789-2.5192-1.2596-13.579" fill="#fde3ac"/> <path d="m229.97 305.23s3.2624 5.2778 8.2883 4.774c0 0 9.5605-1.5116 8.3009-8.049 0 0 3.5143 9.3086-8.049 9.8125 0 0-6.5374 0.25192-8.5402-6.5374" fill="#434c9e"/> <path d="m252.16 264.94s6.9783-0.61722 6.9153 14.02c0 0 1.4234 16.249 5.4794 20.708 0 0-2.7712-8.9181-3.6781-18.668 0 0 0.73058-15.229-8.7166-16.06" fill="#fff"/> <path d="m219.87 267.17s-4.0812 3.3884-5.895 18.693c0 0-1.6249 7.7215-4.6732 8.5276 0 0 2.8467-3.0483 3.6529-9.951 0 0 1.0203-14.007 6.9153-17.269" fill="#fff"/> <path d="m233.07 263.52 4.0308 4.2827-1.8894 0.15116-2.1414-4.4339" fill="#fff"/> <path d="m276.55 434.59s4.5346 3.1742 8.6284 0c0 0 4.5472 1.8139 6.8146 8.6284 0 0-1.3604 2.7334-7.7215 0.90693 0 0-4.5472-3.1742-6.8146-5.4416l-0.90693-4.0938" fill="#fff"/> <path d="m221.57 435.04 5.9076-0.45346s2.7208 1.8139 2.7208 5.4542c0 0-10.896 6.3611-18.176 4.0812 0 0 7.2806-8.175 9.5479-9.0819" fill="#fff"/> <path d="m210.95 445.56s9.6865 1.6123 19.159-3.4262l0.21414 1.5367s-20.381 7.5451-19.373 1.8894" fill="#fff"/> <path d="m277.11 439.92s8.4772 10.493 15.531 4.837c0 0 2.0658 8.1875-10.241 1.4234 0 0-5.1644-2.683-5.2904-6.2603" fill="#fff"/> <path d="m161.64 582.15s26.251 13.818 46.518 5.9958l-1.839-14.284s-7.3814-3.6781-7.8348-9.6739c0 0-4.1442-11.513-2.3051-23.026 0 0 3.2246 21.653 8.7544 27.636l24.865 8.7544s2.7712-1.3856 3.6907-5.5297l-19.537-12.899s0.62981-35.484-19.146-45.598l-0.46606 11.526s-16.123 9.2078-25.331 2.2925c0 0 1.839-11.966 0.45346-14.272 0 0-28.09 23.479-9.6613 52.035 0 0-4.1442-23.026 3.2246-34.539 0 0 1.373 45.132-1.3856 51.582" fill="#fff"/> <path d="m165.33 587.68s22.56 10.593 39.136 3.6781c0 0 5.5297 30.407 5.0637 43.759 0 0-9.2078 6.9027-26.251 4.1442l-2.7586-34.539s-3.6907 23.945-2.3051 33.619c0 0-5.5172 2.3051-10.593-1.3856 0 0-4.5976-37.297-2.2925-49.276" fill="#34b5ed"/> <path d="m189.26 642.15s5.6431 1.2092 11.286-0.80615v12.508s-4.4339 2.4185-7.2554 1.6123c0 0-4.0308-10.493-4.0308-13.314" fill="#e4a369"/> <path d="m177.96 642.15h8.4647l1.6249 5.2526-2.028 7.6585h-6.8523s-2.0154-11.299-1.2092-12.911" fill="#e4a369"/> <path d="m127.93 598.98s7.268 4.0308 11.702 1.6123c0 0 7.6711 4.0308 8.0742 9.6865 0 0-10.09 3.2246-20.582-7.268l0.80616-4.0308" fill="#fff"/> <path d="m99.69 603.82s5.24 5.2526 11.299 0c0 0 8.4647 12.911-0.40308 14.927 0 0-8.8803 2.028-10.896-14.927" fill="#fff"/> <path d="m126.72 604.22s10.09 12.105 22.195 7.6711l0.40308 2.0154s-7.6711 6.0588-22.598-9.6865" fill="#fff"/> <path d="m100.5 613.51s7.6711 13.717 14.523 4.8495c0 0-4.0308 15.33-14.523-4.8495" fill="#fff"/> <path d="m192.89 657.88s5.24 0.40308 8.4773-2.4185c0 0 0 6.0588-0.81876 10.493 0 0-0.40308 6.0588-7.2554 0 0 0-0.40308-6.4493-0.40308-8.0742" fill="#fff"/> <path d="m179.17 656.67 8.0742-0.40308-0.81876 6.8649s-3.2246 3.2246-6.8523-0.80616l-0.40308-5.6557" fill="#fff"/> <path d="m197.73 512.24s3.2246-6.4619 8.4773-5.2526c0 0 4.4716 2.0784 5.5549 0.08818 0 0 3.0735-4.3331 4.522-5.6053 0 0 3.4388-4.522 0.36529-9.951v-2.7082l-12.118 3.2624s-2.3555-3.2624-5.0637-0.36529c0 0-2.8971 5.429 2.3429 5.24l-0.71799 1.0833-2.5318-0.35269-4.522 11.022 3.6907 3.5395" fill="#e4a369"/> <path d="m205.07 489.72 11.576-3.0735s0.17635-2.1666-0.54163-3.8041l-12.118 4.1694 1.0833 2.7082" fill="#e4a369"/> <path d="m197.47 488.82s-10.291 3.8041-23.845 1.2722c0 0-0.54164 31.465-1.9902 36.164 0 0 7.9104 4.1568 20.204-2.5318 0 0-2.8971-11.211 2.8971-24.953 0 0 3.4514-6.5122 2.7334-9.951" fill="#fff"/> <path d="m173.05 488.08s21.665 4.5598 39.892-9.1197c0 0 2.6578-3.0357-0.18894-7.7845 0 0-3.6151-15.758-22.409-10.82 0 0-19.763 5.3156-17.295 27.724" fill="#3fbda5"/> <path d="m214.09 469.67s6.0714 8.7292-3.993 13.478l19.751-7.7845s3.0483-0.76837 0.37789-3.4262c0 0-3.9804-3.6025-8.1624-3.9804l-7.9734 1.7131" fill="#3fbda5"/> <path d="m118.41 431 3.338-8.175s4.5346 3.338 7.2554-0.90693c0 0-0.30231-7.2554 4.837-4.2323l2.4311-1.8138 13.314-3.3254s2.4185 6.6508-2.7334 11.803c0 0-2.1162 2.4185-2.4185 4.2323 0 0 0.30231 3.0231-4.2323 2.4185 0 0-11.198-2.4185-16.64 4.5346 0 0-2.7208 4.8495-5.1519-4.5346" fill="#fbcaa5"/> <path d="m129 421.92s1.2092 2.4185 4.5346 0.60462c0 0-1.8138 3.0357-6.6508 0.30231l2.1162-0.90693" fill="#434c9e"/> <path d="m192.79 667.79s4.585 6.2477 9.5731 0.41567c0 0 11.664 2.5066 15.418 5.832 0 0-19.99 6.6634-25.822 1.6627 0 0 0.3275-6.0714 0.83135-7.9104" fill="#fff"/> <path d="m179.46 664.89s5.832 3.3254 8.3261 0l3.338 1.247-1.2596 6.2477h-10.404s-1.2596-5.832 0-7.4948" fill="#fff"/> <path d="m191.96 677.38s3.7411 5.832 26.238-2.091c0 0 2.9223 2.9223-4.585 4.1694 0 0-13.742 3.7537-21.653-2.0784" fill="#fff"/> <path d="m179.05 673.63h9.9888v1.6627l-9.9888 0.41567v-2.0784" fill="#fff"/> <path d="m498.52 198.08 73.121 64.518h-23.996l-49.125-64.518" fill="#d6e7a4"/> <path d="m493.69 197.54v64.53h-38.179l38.179-64.53" fill="#d6e7a4"/> <path d="m401.09 261.86h16.237l73.121-65.4-89.358 65.4" fill="#d6e7a4"/> <path d="m336.59 667.32c0 9.1952-5.6935 16.64-12.697 16.64-7.0161 0-12.697-7.4444-12.697-16.64s5.6809-16.64 12.697-16.64c7.0035 0 12.697 7.4444 12.697 16.64" fill="#434c9e"/> <path d="m260.12 555.49s17.017 6.1847 12.382 34.829l19.348-4.648s4.6354 2.3177 4.6354 8.515l-29.412 6.1973s-9.2834 4.6354-7.7341-10.845l-0.76837-13.15s2.6578-7.6333-6.9657-10.064l-31.73-13.15s9.888-5.1015 15.304-5.8698c0 0 1.7131 15.153 22.61 15.153 0 0 0.78096-4.648 2.3303-6.9657" fill="#fff"/> <path d="m248.28 572.39-25.898 12.962s-2.8342 6.8775 6.0714 7.2806l25.495-14.574-5.6683-5.6683" fill="#434c9e"/> <path d="m235.38 572.83s8.2505-2.9979 12.836 10.329c0 0 0.85654 1.9272-2.1917 2.091 0 0-0.03779 3.2876-3.338 3.1365 0 0-1.4234 2.6956-4.2197 1.0833l2.2925-2.809s-6.3107-6.9027-6.9405-9.9258l1.5619-3.9048" fill="#e4a369"/> <path d="m233.7 581.71 2.4311 3.6403-6.4744 4.4465s-5.6683 2.4311-4.0434-4.4465l8.0868-3.6403" fill="#bdbcbc"/> <path d="m246.26 574.82s8.0868-8.4898 10.115 0l0.80616 49.377-4.4465 3.6529-0.81875-48.974s-0.80616-2.4311-3.2372 0l-2.4185-4.056" fill="#bdbcbc"/> <path d="m260.42 607.21 45.334-8.9055-2.8342-3.2372-43.709 9.3086 1.2092 2.8342" fill="#bdbcbc"/> <path d="m254.75 631.09s21.048 2.0154 35.219-5.2652c0 0-4.4591 12.143-35.219 10.115v-4.8496" fill="#858a9c"/> <path d="m288.28 655.63c0 3.9174-2.5822 7.0791-5.7565 7.0791-3.1868 0-5.7565-3.1616-5.7565-7.0791s2.5696-7.0791 5.7565-7.0791c3.1742 0 5.7565 3.1616 5.7565 7.0791" fill="#434c9e"/> <path d="m317.1 668.03c0-6.3359 3.7285-11.463 8.3387-11.463 4.5976 0 8.3261 5.1267 8.3261 11.463 0 6.3233-3.7285 11.45-8.3261 11.45-4.6102 0-8.3387-5.1267-8.3387-11.45" fill="#d3d2d2"/> <path d="m327.24 668.55c0 1.247-0.78096 2.2547-1.7383 2.2547s-1.7383-1.0077-1.7383-2.2547c0-1.2596 0.78096-2.2673 1.7383-2.2673s1.7383 1.0077 1.7383 2.2673" fill="#434c9e"/> <path d="m263.97 628.62s13.818-24.172 32.939-7.6963c0 0-24.172 8.767-32.939 7.6963" fill="#2b94c4"/> <path d="m259.99 620.13-0.26453-7.1798s15.141-9.296 43.306-6.9027c0 0 6.3737 1.5871 7.1672 14.612l-0.26452 7.9608s-13.554-28.417-49.944-8.4898" fill="#2b94c4"/> <path d="m298.51 622.51s-6.3737 12.495 2.6578 27.901c0 0 4.5094 2.1162 9.296-3.1868 0 0-4.2449-21.791-11.954-24.714" fill="#2b94c4"/> <path d="m301.96 652.28s-1.8516 3.1868 1.5997 6.6382l17.534-6.3737s2.3933-4.7866-7.1798-3.993c0 0-9.0315 4.7866-11.954 3.7285" fill="#fff"/> <path d="m247.9 655.24c0 26.288 16.01 47.664 35.685 47.664 19.663 0 35.672-21.376 35.672-47.664s-16.01-47.664-35.672-47.664c-19.675 0-35.685 21.376-35.685 47.664zm9.1197 0c0-21.477 11.916-38.96 26.565-38.96 14.637 0 26.553 17.484 26.553 38.96 0 21.489-11.916 38.96-26.553 38.96-14.649 0-26.565-17.471-26.565-38.96z" fill="#434c9e" stroke="#434c9e" stroke-width="1.1085"/> <path d="m250.9 655.46c0 24.714 14.549 44.817 32.448 44.817 17.887 0 32.435-20.104 32.435-44.817s-14.549-44.817-32.435-44.817c-17.899 0-32.448 20.104-32.448 44.817zm3.3254 0c0-22.875 13.062-41.492 29.122-41.492 16.048 0 29.122 18.617 29.122 41.492s-13.075 41.492-29.122 41.492c-16.06 0-29.122-18.617-29.122-41.492" fill="#858a9c"/> <path d="m262.23 553.4 6.4745-10.291s20.96 1.5241 16.778-14.864l0.37789-4.5346-9.9132 4.1568s-1.5242-3.4262-4.182 0.75577c0 0-4.1945 4.9629 0.75577 4.9629 0 0-4.5724 3.8041-5.3408 5.7187 0 0-6.8524 12.193-6.8524 13.717l1.902 0.37789" fill="#e5ad93"/> <path d="m238.6 549.97s-2.6704-10.669 1.1463-18.68c0 0 21.338 0.37789 28.959-2.2799 0 0-3.0483 4.1945-0.37789 4.9503 0 0-12.962 16.766-12.193 25.533 0 0-9.9132 0.37788-4.9503-18.668 0 0-6.0966 13.327 0 17.912 0 0-16.388 0.75578-8.3891-20.582 0 0-3.4262-1.902-4.1946 11.815" fill="#f6d841"/> <path d="m242.87 512.4s23.882 6.8272 37.94-8.5276l-5.1141-10.656s-12.785 12.369-31.969 7.2428c0 0-2.1288 4.6984-0.85655 11.941" fill="#74c267" fill-rule="evenodd"/> <path d="m239.47 516.67s32.397 10.656 46.039-11.513c0 0 22.169-2.1414 9.7999 10.228 0 0-14.486 8.2631-28.556 11.248 0 0-52.01 8.3639-27.283-9.9636" fill="#74c267" fill-rule="evenodd"/> <path d="m245.01 497.9s9.3716-9.7999 28.556-6.3863c0 0-7.6711 10.656-28.556 6.3863" fill="#74c267" fill-rule="evenodd"/> <path d="m297.44 587s1.7131 4.2575 1.7131 5.958c0 0 4.0434-0.89433 5.9706 0.42828 0 0 2.557-8.9433-7.6837-6.3863" fill="#e5ad93"/> <path d="m102.04595,467.56523c.03779.40308.27712,1.14626 1.41078,1.04549 .61721-.06298 1.28481-.28971 1.20924-1.03289-.03779-.56683-.52904-.6676-1.19664-.79356l-.6802-.12596c-1.02029-.17635-2.0154-.3527-2.15395-1.91463-.06298-.79356.18894-2.22953 2.20433-2.40588 1.88944-.16375 2.53185,1.22184 2.60742,2.09098l-1.23443.11336c-.06298-.3149-.23933-1.05808-1.36039-.95731-.50385.03779-1.07068.30231-1.0077.94472 .03779.55423.45347.6424.71799.68019l1.54933.30231c.86914.16375 1.6753.49125 1.78867,1.77607 .18894,2.14135-1.70049,2.49405-2.24213,2.54443-2.26732.18895-2.78377-1.27221-2.85934-2.15395l1.24702-.11337" fill="#434c9e"/> <path d="m110.68696,469.0264-1.15885.10077-.06298-.74318h-.0126c-.22673.59202-.6802.95731-1.3226,1.0077-.90693.07557-1.61232-.46606-1.72568-1.81386l-.30231-3.47656 1.20923-.10077 .27712,3.27502c.07558.81876.50385.94472.86914.90693 .40308-.03779.90693-.3401.83135-1.28482l-.26452-3.04828 1.20924-.10077 .45346,5.27782" fill="#434c9e"/> <path d="m96.705 477.76 4.3079 3.5899s11.085-16.514-1.499-47.752l-5.3534 2.5444s14.02 22.963 3.2624 39.464" fill="#3491cb"/> <path d="m299.92 259.5 4.0686-2.1288-0.85654 4.3709-3.212-2.2421" fill="#f68711"/> <path d="m305.8 256.4 3.9552-2.1288-0.64241 4.7992-3.3128-2.6704" fill="#f68711"/> <path d="m311.46 253.73 3.9552-1.4864-0.74317 4.3709-3.212-2.8845" fill="#f68711"/> <path d="m316.91 252.03 4.056-0.96991-0.74318 4.4843-3.3128-3.5144" fill="#f68711"/> <path d="m322.47 250.96 3.8418-0.32751-1.2722 3.9552-2.5696-3.6277" fill="#f68711"/> <path d="m327.92 250.63c0.31491-0.10077 3.7411 0.11337 3.7411 0.11337l-1.2848 3.1994-2.4563-3.3128" fill="#f68711"/> </svg>